<?xml version="1.0" encoding="utf-8"?>
<!-- Generator: Adobe Illustrator 22.1.0, SVG Export Plug-In . SVG Version: 6.00 Build 0)  -->
<svg version="1.1" xmlns="http://www.w3.org/2000/svg" xmlns:xlink="http://www.w3.org/1999/xlink" x="0px" y="0px"
	 viewBox="0 0 1310 1310" style="enable-background:new 0 0 1310 1310;" xml:space="preserve">
<style type="text/css">
	.st0{fill:#F4F4F4;}
	.st1{fill:#777777;}
	.st2{fill:#368CA3;}
	.st3{clip-path:url(#SVGID_2_);}
	.st4{opacity:0.8;fill:#ACD4E2;}
	.st5{opacity:0.2;fill:#DDDDDD;}
	.st6{fill:#71ACBC;}
	.st7{clip-path:url(#SVGID_4_);fill:#F4F4F4;}
	.st8{clip-path:url(#SVGID_4_);fill:#777777;}
	.st9{clip-path:url(#SVGID_4_);fill:#71ACBC;}
	.st10{clip-path:url(#SVGID_4_);fill:#368CA3;}
	.st11{fill:none;stroke:#777777;stroke-width:10;stroke-miterlimit:10;}
	.st12{clip-path:url(#SVGID_6_);fill:#F4F4F4;}
	.st13{clip-path:url(#SVGID_6_);fill:#777777;}
	.st14{clip-path:url(#SVGID_6_);fill:#71ACBC;}
	.st15{clip-path:url(#SVGID_6_);fill:#368CA3;}
	.st16{opacity:0.1;}
	.st17{filter:url(#AI_BevelShadow_1);}
	.st18{fill:none;stroke:#000000;stroke-width:0.3;}
</style>
<filter  height="140%" id="AI_BevelShadow_1" width="140%" x="-20%" y="-20%">
	<feGaussianBlur  in="SourceAlpha" result="blur" stdDeviation="4"></feGaussianBlur>
	<feOffset  dx="4" dy="4" in="blur" result="offsetBlur"></feOffset>
	
		<feSpecularLighting  in="blur" result="specOut" specularConstant="1" specularExponent="10" style="lighting-color:white" surfaceScale="5">
		<fePointLight  x="-5000" y="-10000" z="-20000"></fePointLight>
	</feSpecularLighting>
	<feComposite  in="specOut" in2="SourceAlpha" operator="in" result="specOut"></feComposite>
	<feComposite  in="SourceGraphic" in2="specOut" k1="0" k2="1" k3="1" k4="0" operator="arithmetic" result="litPaint">
		</feComposite>
	<feMerge>
		<feMergeNode  in="offsetBlur"></feMergeNode>
		<feMergeNode  in="litPaint"></feMergeNode>
	</feMerge>
</filter>
<g id="Layer_2">
	<rect x="-1873" y="213" class="st0" width="1267" height="1170"/>
	<text transform="matrix(1.0787 0 0 1 -1439 1054.5312)" class="st1" style="font-family:'Ubuntu-Light'; font-size:58.5138px;">APPLICATIONS</text>
	<text transform="matrix(0.8418 0 0 1 -1549 1005.0674)" class="st2" style="font-family:'Raleway'; font-size:138.0919px;">By</text>
	<text transform="matrix(0.8418 0 0 1 -1409 1005.0674)"><tspan x="0" y="0" class="st2" style="font-family:'Raleway'; font-size:138.0919px;">te</tspan><tspan x="126.9" y="0" class="st1" style="font-family:'Raleway'; font-size:138.0919px;">wave</tspan></text>
</g>
<g id="Layer_7">
	<g>
		<defs>
			<circle id="SVGID_1_" cx="-1281" cy="659" r="222"/>
		</defs>
		<clipPath id="SVGID_2_">
			<use xlink:href="#SVGID_1_"  style="overflow:visible;"/>
		</clipPath>
		<g class="st3">
			<path class="st4" d="M-1455.2,523.8c46.6-59.9,123.4-95.2,207.5-82.9c94.5,13.8,202.4,69,241.7,156.1
				c66.3,146.9-160.7,322.2-309,301c-90.4-12.9-173.1-119.4-184.7-210.1C-1507.5,625.9-1489.6,568.1-1455.2,523.8"/>
			<circle class="st5" cx="-1281" cy="659" r="220.5"/>
			<path class="st1" d="M-1501,663l125-116l100,20c-55,0-110,52-90,128c5,31-9.7,37.4,46,64c44,21,144-10,152-21c0,10.8-1,25-3,27h1
				c64-19,86-89,92-113c17.9-71.8,6-122-15-147c-7-105-125-116-196-116c-67,0-235,82-240,277"/>
			<path class="st6" d="M-1496,682c0-85.9,66.6-190,155-190s146,54.1,146,140c-77-145-246-18-194,98v-1c-8.8,0-31-6.2-31-15l0,0
				c16,92,99.5,134,157,139c57,5,99-11,127-34l36-30c-25.3,30.8-37.4,66.8-72,82c-149.8,65.9-376.6-21.7-388-185"/>
			<path class="st2" d="M-1337,532c-6.1,0-14,22-10,26c116-25,155.6,46.8,157,86c3,82-132.8,77-172,77c81,102,196.5,11.5,211-70
				c5-28-2.3-55.9-13.3-72.8l0.3-0.2c14.1,0,28,0,34,10c-31.4-70.3-95-112-173-118c-109.8-8.4-250,96.5-218,217l22,36
				c0-19.3,13-132,92-175c13.8-7.5,54.7-21.5,69.5-16.1"/>
			<path class="st1" d="M-1387,663.5c0-56.6,41.7-103.5,98.3-103.5s106.7,46.9,106.7,103.5S-1227.9,766-1284.5,766
				C-1341.1,766-1387,720.1-1387,663.5z"/>
		</g>
		<use xlink:href="#SVGID_1_"  style="overflow:visible;fill:none;stroke:#777777;stroke-width:7;stroke-miterlimit:10;"/>
	</g>
</g>
<g id="Layer_4">
	<g>
		<defs>
			<path id="SVGID_3_" d="M1105,655c0,248.5-201.5,450-450,450S205,903.5,205,655s201.5-450,450-450S1105,406.5,1105,655z"/>
		</defs>
		<clipPath id="SVGID_4_">
			<use xlink:href="#SVGID_3_"  style="overflow:visible;"/>
		</clipPath>
		<circle class="st7" cx="661" cy="655" r="450"/>
		<path class="st8" d="M217,647.7c77.5-59.7,155-119.3,232.4-179c29.2-22.5,41.7-13.7,79.8-7.4c48.6,8.1,97.2,16.1,145.8,24.2
			c-49.3,0-102,15.8-131.9,57.5c-36.5,50.9-34.9,111-9.6,161.8C557,752,545.5,832.9,680,820c57.9-5.6,206.4-61.6,214.5-10
			c3,18.9-10.6,31.8,17.4,27.8c26.7-3.8,56.9-31.5,77.3-47.2c51.4-39.5,130.5-98.1,153.1-161.9c14.3-40.3-17.1-102.2-31.3-140.6
			c-16.7-45.2-53.3-83.4-65.9-126.4c-29.6-101.4-113.9-142.9-212.9-162.1c-80.5-15.6-171.3-23.9-252.2-6.3
			c-218.9,47.5-412.8,226.9-420,459.4"/>
		<path class="st9" d="M205.2,705.6c0-161.8,191.1-323.2,339.5-352.3c83.9-16.4,150.3,11.9,199.5,81.1
			c16.5,23.2,101,174.7,70.8,194.1c1.4-0.9-110.7-102.2-134.6-118.9C618,466,517,527.6,473.8,596c-26.2,41.4-24.8,118.1-77.5,122
			c-22.8,1.7-38.7-40.6-55.4-17.8c-12.6,17.1,46.2,115.2,56.6,129.6c52.3,73.3,134.3,98,220.4,108c68.8,7.9,190.1-21.4,247.9,22.4
			c46.2,35,6.9,75.5,89.7,15.3c59-42.9,158.7-113.6,194.1-179c-18.7,34.5-68.1,61.1-96,89c-46.6,46.6-83.8,101.4-132.6,146
			c-88.9,81.3-195.2,119.1-315.7,105.8C396,1114.1,139.1,944.4,122,717.1"/>
		<path class="st10" d="M529.9,419.9c-20.8,35.1,57,30.2,74,32c65.9,6.7,130.5,26.6,172.7,81c15.2,19.6,48.3,66.2,36.9,91.3
			c-10.4,22.8-56.1,36.8-76.7,45.2C669.4,696.6,588.6,725,515,725c75.1,123.6,231.5,118.9,319.8,11.7
			c38.9-47.2,50.5-100.1,40.1-159.5c-3.6-20.4-16.1-53.5-8.1-74.1c14-36,47.2,6.3,60.2-7.3c8-8.4-37.1-66.2-43.4-74.3
			c-19.2-24.6-41.4-47-65.7-66.5c-46.6-37.4-101.3-64.2-158.9-79.8c-118.5-32.1-239.7-7.9-338.3,65.5
			c-90.4,67.3-158.4,174.8-151.5,290.7C173.1,697.3,205.5,761,228,822c-35.9-90.8,17.7-215,66.8-290.5
			c30.4-46.8,69.9-90.3,119.2-117.5C430.3,405,563.9,362.5,529.9,419.9z"/>
	</g>
	<circle class="st1" cx="655.5" cy="655.5" r="166.5"/>
	<path class="st11" d="M1105,655c0,409.6-527.5,603.4-792.9,291.5C41.9,628.8,332.9,134.8,741,213.3
		C949.9,253.5,1105,442.5,1105,655z"/>
</g>
<g id="Layer_5">
	<text transform="matrix(1.0567 0 0 1 2055.917 591.4639)" class="st1" style="font-family:'Ubuntu-Light'; font-size:69.0654px;">APPLICATIONS</text>
	<text transform="matrix(0.9831 0 0 1 1923 527.0674)"><tspan x="0" y="0" class="st2" style="font-family:'Raleway'; font-size:138.0919px;">Byte</tspan><tspan x="294" y="0" class="st1" style="font-family:'Raleway'; font-size:138.0919px;">wave</tspan></text>
	<g>
		<defs>
			<path id="SVGID_5_" d="M2496,128c0,143.6-116.4,260-260,260s-260-116.4-260-260s116.4-260,260-260S2496-15.6,2496,128z"/>
		</defs>
		<clipPath id="SVGID_6_">
			<use xlink:href="#SVGID_5_"  style="overflow:visible;"/>
		</clipPath>
		<circle class="st12" cx="2239.5" cy="128" r="260"/>
		<path class="st13" d="M1982.9,123.8c44.8-34.5,89.5-68.9,134.3-103.4c16.9-13,24.1-7.9,46.1-4.3c28.1,4.7,56.2,9.3,84.3,14
			c-28.5,0-58.9,9.1-76.2,33.2c-21.1,29.4-20.2,64.1-5.6,93.5c13.5,27.2,6.9,74,84.6,66.5c33.5-3.2,119.2-35.6,123.9-5.8
			c1.7,10.9-6.1,18.3,10,16.1c15.4-2.2,32.9-18.2,44.7-27.3c29.7-22.8,75.4-56.7,88.5-93.5c8.3-23.3-9.9-59-18.1-81.2
			c-9.7-26.1-30.8-48.2-38.1-73c-17.1-58.6-65.8-82.6-123-93.7c-46.5-9-99-13.8-145.7-3.7C2066.2-111.3,1954.1-7.6,1950,126.7"/>
		<path class="st14" d="M1976.1,157.3c0-93.5,110.4-186.8,196.1-203.6c48.5-9.5,86.8,6.9,115.3,46.9c9.5,13.4,58.4,101,40.9,112.1
			c0.8-0.5-63.9-59-77.7-68.7c-36-25.2-94.4,10.4-119.3,49.9c-15.1,23.9-14.4,68.2-44.8,70.5c-13.2,1-22.4-23.5-32-10.3
			c-7.3,9.9,26.7,66.5,32.7,74.9c30.2,42.3,77.6,56.6,127.3,62.4c39.7,4.6,109.8-12.4,143.2,12.9c26.7,20.2,4,43.6,51.8,8.8
			c34.1-24.8,91.7-65.6,112.1-103.4c-10.8,20-39.3,35.3-55.5,51.4c-26.9,26.9-48.4,58.6-76.6,84.4c-51.4,47-112.8,68.8-182.4,61.1
			c-120.9-13.3-269.3-111.4-279.2-242.7"/>
		<path class="st15" d="M2163.7-7.8c-12,20.3,32.9,17.5,42.8,18.5c38.1,3.9,75.4,15.4,99.8,46.8c8.8,11.3,27.9,38.3,21.3,52.7
			c-6,13.2-32.4,21.3-44.3,26.1c-38.9,15.8-85.6,32.2-128.1,32.2c43.4,71.4,133.7,68.7,184.8,6.8c22.5-27.3,29.2-57.8,23.1-92.2
			c-2.1-11.8-9.3-30.9-4.7-42.8c8.1-20.8,27.2,3.7,34.8-4.2c4.6-4.8-21.4-38.2-25.1-42.9c-11.1-14.2-23.9-27.1-38-38.4
			c-27-21.6-58.5-37.1-91.8-46.1c-68.5-18.6-138.5-4.6-195.4,37.8c-52.2,38.9-91.5,101-87.5,168c2.3,38,21,74.8,34,110.1
			c-20.8-52.5,10.2-124.2,38.6-167.9c17.6-27,40.4-52.2,68.9-67.9C2106.2-16.4,2183.4-41,2163.7-7.8z"/>
	</g>
	<circle class="st1" cx="2236" cy="128.3" r="96.2"/>
	<path class="st11" d="M2495.4,128c0,236.6-304.8,348.6-458.1,168.4c-156.2-183.5,12-469,247.8-423.6
		C2405.7-104,2495.4,5.2,2495.4,128z"/>
</g>
<g id="Layer_6">
	<text transform="matrix(0.9793 0 0 1 -398.4998 -572.7764)"><tspan x="0" y="0" class="st2" style="font-family:'Raleway'; font-size:347.7797px;">Byte</tspan><tspan x="740.4" y="0" class="st1" style="font-family:'Raleway'; font-size:347.7797px;">wave</tspan></text>
	<path class="st6" d="M-67-495h1188.3c4.8,0,8.7-3.9,8.7-8.7v-14.6c0-4.8-3.9-8.7-8.7-8.7H-54L-67-495z"/>
	<path class="st16" d="M110-495h1012.6c4.1,0,7.4-3.9,7.4-8.7v-14.6c0-4.8-3.3-8.7-7.4-8.7H121.1L110-495z"/>
	<path class="st16" d="M287-495h836.9c3.4,0,6.1-3.9,6.1-8.7v-14.6c0-4.8-2.7-8.7-6.1-8.7H296.2L287-495z"/>
	<g class="st17">
		<line class="st18" x1="239.7" y1="193" x2="239.7" y2="224.1"/>
		<line class="st18" x1="196" y1="239.7" x2="225.2" y2="239.7"/>
		<line class="st18" x1="196" y1="1066.3" x2="225.2" y2="1066.3"/>
		<line class="st18" x1="239.7" y1="1113" x2="239.7" y2="1081.9"/>
		<line class="st18" x1="1072.3" y1="193" x2="1072.3" y2="224.1"/>
		<line class="st18" x1="1116" y1="239.7" x2="1086.8" y2="239.7"/>
		<line class="st18" x1="1116" y1="1066.3" x2="1086.8" y2="1066.3"/>
		<line class="st18" x1="1072.3" y1="1113" x2="1072.3" y2="1081.9"/>
	</g>
</g>
</svg>
