<svg xmlns="http://www.w3.org/2000/svg" viewBox="0 0 900 900"><defs><style>.cls-1{fill:#f4f4f4;}.cls-2{fill:#777;}.cls-3{fill:#71acbc;}.cls-4{fill:#368ca3;}</style></defs><title>Asset 4</title><g id="Layer_2" data-name="Layer 2"><g id="Layer_4" data-name="Layer 4"><path class="cls-1" d="M784.17,585.61c-20.42,15.71-50.59,43.4-77.29,47.2-27.92,4-14.38-8.91-17.36-27.79-7.95-50.42-149.6,1.82-210.23,9.49a168,168,0,0,1-54.47.52c-12.82-1.58-23.51-4.51-32.48-8.48a166.55,166.55,0,0,1-9-308.41c-45.05,15.93-89.44,53.25-114.46,92.82-26.2,41.44-24.84,118.1-77.46,122-22.78,1.7-38.7-40.65-55.43-17.84-12.56,17.11,46.21,115.15,56.56,129.64,52.32,73.26,134.28,98,220.37,108,68.78,7.93,190.11-21.43,247.88,22.38,46.2,35,6.92,75.47,89.74,15.25,13.87-10.1,30-21.73,47-34.47A447.88,447.88,0,0,0,898.6,485.66C864.68,524.68,818.31,559.34,784.17,585.61Z"/><path class="cls-2" d="M454,70.31c57.62,15.62,112.26,42.42,158.9,79.8a403.68,403.68,0,0,1,65.75,66.52c6.32,8.1,51.47,65.9,43.42,74.27-13.06,13.57-46.18-28.74-60.22,7.25-8,20.63,4.46,53.68,8.06,74.1,10.48,59.41-1.15,112.29-40.06,159.49-35.68,43.3-82.47,69.85-130.51,78a166,166,0,0,1-20,4.78c60.63-7.67,202.28-59.91,210.23-9.49,3,18.88-10.56,31.76,17.36,27.79,26.7-3.8,56.87-31.49,77.29-47.2,34.14-26.27,80.51-60.93,114.43-99.95Q900,468,900,450C900,201.47,698.53,0,450,0A448.25,448.25,0,0,0,156.26,109.09C246.52,56.94,351.21,42.46,454,70.31Z"/><path class="cls-2" d="M424.82,615a165.3,165.3,0,0,1-32.48-8.48C401.31,610.52,412,613.45,424.82,615Z"/><path class="cls-3" d="M450,900c140,0,265-63.89,347.51-164.09-17,12.74-33.15,24.37-47,34.47-82.82,60.22-43.54,19.77-89.74-15.25-57.77-43.81-179.1-14.45-247.88-22.38-86.09-9.92-168-34.7-220.37-108-10.35-14.49-69.12-112.53-56.56-129.64,16.73-22.81,32.65,19.54,55.43,17.84,52.62-3.93,51.26-80.59,77.46-122,25-39.57,69.41-76.89,114.46-92.82A166.61,166.61,0,0,1,610.76,405.19c-1.31-25.75-26.47-60.91-39.17-77.31-42.15-54.44-106.78-74.33-172.67-81-17-1.73-94.81,3.17-74-32C358.89,157.5,225.3,200,209,209c-49.29,27.18-88.85,70.74-119.23,117.49C51.91,384.75,11.33,472,11.28,550.56,57,750.67,236,900,450,900Z"/><path class="cls-4" d="M89.77,326.49C120.15,279.74,159.71,236.18,209,209c16.3-9,149.89-51.5,115.91,5.9-20.8,35.13,57,30.23,74,32,65.89,6.69,130.52,26.58,172.67,81,12.7,16.4,37.86,51.56,39.17,77.31A166.72,166.72,0,0,1,499.29,609.73c48-8.14,94.83-34.69,130.51-78,38.91-47.2,50.54-100.08,40.06-159.49-3.6-20.42-16.11-53.47-8.06-74.1,14-36,47.16,6.32,60.22-7.25,8.05-8.37-37.1-66.17-43.42-74.27a403.68,403.68,0,0,0-65.75-66.52C566.21,112.73,511.57,85.93,454,70.31,351.21,42.46,246.52,56.94,156.26,109.09,60.57,191.61,0,313.73,0,450A451.51,451.51,0,0,0,11.28,550.56C11.33,472,51.91,384.75,89.77,326.49Z"/><path class="cls-2" d="M284,450.5A166.4,166.4,0,0,0,424.82,615a168,168,0,0,0,54.47-.52A166.52,166.52,0,1,0,284,450.5Z"/></g></g></svg>