<svg xmlns="http://www.w3.org/2000/svg" viewBox="0 0 1539 591"><defs><style>.cls-1{font-size:347.78px;fill:#368ca3;font-family:Raleway, Raleway;}.cls-2{letter-spacing:-0.01em;}.cls-3{letter-spacing:-0.02em;}.cls-4,.cls-5,.cls-6{fill:#777;}.cls-4{letter-spacing:-0.01em;}.cls-5{letter-spacing:-0.02em;}.cls-6{letter-spacing:0em;}.cls-7{fill:#71acbc;}.cls-8{opacity:0.1;}</style></defs><title>Artboard 7</title><g id="Layer_6" data-name="Layer 6"><text class="cls-1" transform="translate(-14.5 405.22) scale(0.98 1)"><tspan class="cls-2">B</tspan><tspan x="228.84" y="0">yt</tspan><tspan class="cls-3" x="532.79" y="0">e</tspan><tspan class="cls-4" x="731.37" y="0">w</tspan><tspan class="cls-5" x="1009.94" y="0">a</tspan><tspan class="cls-6" x="1194.27" y="0">ve</tspan></text><path class="cls-7" d="M317,483H1505.32a8.68,8.68,0,0,0,8.68-8.68V459.68a8.68,8.68,0,0,0-8.68-8.68H330Z"/><path class="cls-8" d="M494,483H1506.6c4.09,0,7.4-3.89,7.4-8.68V459.68c0-4.79-3.31-8.68-7.4-8.68H505.08Z"/><path class="cls-8" d="M671,483h836.89c3.37,0,6.11-3.89,6.11-8.68V459.68c0-4.79-2.74-8.68-6.11-8.68H680.16Z"/></g></svg>