<svg xmlns="http://www.w3.org/2000/svg" viewBox="0 0 1400.91 1385.85"><defs><style>.cls-1{fill:#444;}.cls-2{fill:#555;}.cls-3{fill:#f4f4f4;}.cls-12,.cls-3{opacity:0.8;}.cls-4{fill:#333;}.cls-5{font-size:82.08px;fill:#368ca3;font-family:Raleway-Medium, Raleway;}.cls-6{letter-spacing:-0.03em;}.cls-7{letter-spacing:-0.02em;}.cls-8{letter-spacing:0em;}.cls-9{letter-spacing:-0.02em;}.cls-10{letter-spacing:-0.02em;}.cls-11{opacity:0.15;}.cls-12{fill:#fff;}</style></defs><title>Asset 2</title><g id="Layer_2" data-name="Layer 2"><g id="Layer_1-2" data-name="Layer 1"><path class="cls-1" d="M1400.76,885.53l0,0V872.28l-15.06,2.16L888.51,587.36c-5.27-3-13.81-3-19.09,0L37.29,1067.79,14,1071.14v13.22h0c-.06,2.05,1.24,4.1,3.93,5.65l508.45,293.56c5.27,3,13.82,3,19.09,0L1397,891.94C1400,890.18,1401.22,887.81,1400.76,885.53Z"/><path class="cls-1" d="M870.36,3,865.52.53h0c-1.72-.9-4.13-.7-6.79.84L835.88,14.57h0L9.52,491.66C4.26,494.7,0,501.74,0,507.39v544.93a6.25,6.25,0,0,0,2,5v.05l.25.13a4.31,4.31,0,0,0,1,.55L7,1060l18.35-12.15L858.72,566.77c5.25-3,9.52-10.08,9.52-15.73V7.68Z"/><path class="cls-2" d="M863.13,569,13.93,1059.26c-5.26,3-9.52.91-9.52-4.74V509.59c0-5.65,4.26-12.69,9.52-15.72L863.13,3.58c5.25-3,9.51-.91,9.51,4.74V553.25C872.64,558.89,868.38,565.93,863.13,569Z"/><path class="cls-3" d="M839.59,566.89,37.46,1030c-5,2.86-9,.86-9-4.47V510.8c0-5.33,4-12,9-14.85L839.59,32.84c5-2.87,9-.86,9,4.47V552C848.58,557.37,844.56,564,839.59,566.89Z"/><path class="cls-2" d="M1397,878.71,545.43,1370.34c-5.27,3-13.82,3-19.09,0L17.89,1076.79c-5.27-3-5.27-8,0-11L869.42,574.14c5.28-3,13.82-3,19.09,0L1397,867.69C1402.23,870.73,1402.23,875.67,1397,878.71Z"/><path class="cls-1" d="M1124.8,1030.68,852.12,1188.11a8.41,8.41,0,0,1-7.63,0l-166-95.87c-2.11-1.21-2.11-3.19,0-4.4L951.12,930.4a8.49,8.49,0,0,1,7.64,0l166,95.87C1126.91,1027.49,1126.91,1029.46,1124.8,1030.68Z"/><path class="cls-4" d="M168.77,1006.42l-37.18,21.46c-2.11,1.21-2.11,3.19,0,4.41l15.51,9a8.43,8.43,0,0,0,7.64,0l37.17-21.46c2.11-1.22,2.11-3.19,0-4.41l-15.51-9A8.41,8.41,0,0,0,168.77,1006.42Z"/><path class="cls-4" d="M221.83,975.78l-37.18,21.46c-2.1,1.22-2.1,3.19,0,4.41l15.52,9a8.47,8.47,0,0,0,7.63,0L245,989.14c2.1-1.21,2.1-3.19,0-4.4l-15.52-9A8.41,8.41,0,0,0,221.83,975.78Z"/><path class="cls-4" d="M274.89,945.14l-37.17,21.47c-2.11,1.21-2.11,3.19,0,4.4l15.51,9a8.41,8.41,0,0,0,7.63,0L298,958.51c2.11-1.22,2.11-3.19,0-4.41l-15.51-9A8.49,8.49,0,0,0,274.89,945.14Z"/><path class="cls-4" d="M328,914.51,290.78,936c-2.11,1.22-2.11,3.19,0,4.41l15.51,9a8.43,8.43,0,0,0,7.64,0l37.17-21.46c2.11-1.22,2.11-3.19,0-4.41l-15.51-9A8.43,8.43,0,0,0,328,914.51Z"/><path class="cls-4" d="M381,883.87l-37.18,21.46c-2.1,1.22-2.1,3.19,0,4.41l15.52,9a8.41,8.41,0,0,0,7.63,0l37.17-21.46c2.11-1.22,2.11-3.2,0-4.41l-15.51-9A8.41,8.41,0,0,0,381,883.87Z"/><path class="cls-4" d="M434.08,853.24,396.91,874.7c-2.11,1.22-2.11,3.19,0,4.41l15.51,8.95a8.41,8.41,0,0,0,7.63,0l37.18-21.46c2.11-1.22,2.11-3.19,0-4.41l-15.51-9A8.43,8.43,0,0,0,434.08,853.24Z"/><path class="cls-4" d="M487.14,822.6,450,844.06c-2.11,1.22-2.11,3.19,0,4.41l15.51,9a8.49,8.49,0,0,0,7.64,0L510.29,836c2.11-1.21,2.11-3.19,0-4.4l-15.51-9A8.43,8.43,0,0,0,487.14,822.6Z"/><path class="cls-4" d="M540.21,792,503,813.43c-2.11,1.21-2.11,3.19,0,4.4l15.51,9a8.43,8.43,0,0,0,7.64,0l37.17-21.46c2.11-1.22,2.11-3.19,0-4.41l-15.51-9A8.47,8.47,0,0,0,540.21,792Z"/><path class="cls-4" d="M593.27,761.33,556.1,782.79C554,784,554,786,556.1,787.2l15.51,8.95a8.41,8.41,0,0,0,7.63,0l37.18-21.46c2.1-1.22,2.1-3.19,0-4.41l-15.52-8.95A8.41,8.41,0,0,0,593.27,761.33Z"/><path class="cls-4" d="M646.33,730.69l-37.17,21.46c-2.11,1.22-2.11,3.2,0,4.41l15.51,9a8.41,8.41,0,0,0,7.63,0l37.18-21.46c2.11-1.22,2.11-3.19,0-4.41l-15.51-9A8.49,8.49,0,0,0,646.33,730.69Z"/><path class="cls-4" d="M699.39,700.06l-37.17,21.46c-2.11,1.22-2.11,3.19,0,4.41l15.51,9a8.43,8.43,0,0,0,7.64,0l37.17-21.46c2.11-1.22,2.11-3.19,0-4.41l-15.51-9A8.43,8.43,0,0,0,699.39,700.06Z"/><path class="cls-4" d="M752.46,669.42l-37.18,21.46c-2.1,1.22-2.1,3.19,0,4.41l15.52,9a8.47,8.47,0,0,0,7.63,0l37.17-21.47c2.11-1.21,2.11-3.19,0-4.4l-15.51-9A8.41,8.41,0,0,0,752.46,669.42Z"/><path class="cls-4" d="M805.52,638.78l-37.17,21.47c-2.11,1.21-2.11,3.19,0,4.41l15.51,9a8.41,8.41,0,0,0,7.63,0l37.18-21.46c2.11-1.22,2.11-3.19,0-4.41l-15.51-9A8.49,8.49,0,0,0,805.52,638.78Z"/><path class="cls-4" d="M994.62,894.37l37.17-21.47c2.11-1.21,2.11-3.19,0-4.4l-15.51-9a8.41,8.41,0,0,0-7.63,0L971.47,881c-2.11,1.22-2.11,3.19,0,4.41l15.51,9A8.49,8.49,0,0,0,994.62,894.37Z"/><path class="cls-4" d="M1016.73,848.58l37.17-21.46c2.11-1.22,2.11-3.19,0-4.41l-15.51-9a8.41,8.41,0,0,0-7.63,0l-37.18,21.46c-2.11,1.22-2.11,3.19,0,4.41l15.51,9A8.43,8.43,0,0,0,1016.73,848.58Z"/><path class="cls-4" d="M1096,835.82l37.17-21.46c2.11-1.22,2.11-3.2,0-4.41l-15.51-9a8.43,8.43,0,0,0-7.64,0l-37.17,21.46c-2.11,1.22-2.11,3.19,0,4.41l15.51,9A8.43,8.43,0,0,0,1096,835.82Z"/><path class="cls-4" d="M1045.32,865.09l37.18-21.46c2.11-1.22,2.11-3.19,0-4.41l-15.51-9a8.43,8.43,0,0,0-7.64,0l-37.17,21.46c-2.11,1.22-2.11,3.19,0,4.41l15.51,9A8.41,8.41,0,0,0,1045.32,865.09Z"/><path class="cls-4" d="M480.49,1063.85l-37.17,21.46c-2.11,1.22-2.11,3.19,0,4.41l44.1,25.46a8.43,8.43,0,0,0,7.64,0l37.17-21.46c2.11-1.22,2.11-3.19,0-4.41l-44.1-25.46A8.43,8.43,0,0,0,480.49,1063.85Z"/><path class="cls-4" d="M380.67,1053.87l-37.17,21.46c-2.11,1.22-2.11,3.19,0,4.41l44.1,25.47a8.49,8.49,0,0,0,7.64,0l37.17-21.47c2.11-1.21,2.11-3.19,0-4.4l-44.1-25.47A8.43,8.43,0,0,0,380.67,1053.87Z"/><path class="cls-4" d="M336.69,1071.4l37.17-21.46c2.11-1.22,2.11-3.19,0-4.41l-44.1-25.46a8.43,8.43,0,0,0-7.64,0L285,1041.53c-2.11,1.22-2.11,3.19,0,4.41l44.11,25.46A8.41,8.41,0,0,0,336.69,1071.4Z"/><path class="cls-4" d="M389.75,1040.77l37.18-21.46c2.11-1.22,2.11-3.2,0-4.41l-44.11-25.47a8.47,8.47,0,0,0-7.63,0L338,1010.9c-2.11,1.21-2.11,3.19,0,4.4l44.11,25.47A8.47,8.47,0,0,0,389.75,1040.77Z"/><path class="cls-4" d="M442.82,1010.13,480,988.67c2.11-1.22,2.11-3.19,0-4.41L435.88,958.8a8.41,8.41,0,0,0-7.63,0l-37.17,21.46c-2.11,1.22-2.11,3.19,0,4.41l44.1,25.46A8.43,8.43,0,0,0,442.82,1010.13Z"/><path class="cls-4" d="M495.88,979.5,533.05,958c2.11-1.21,2.11-3.19,0-4.4L489,928.16a8.43,8.43,0,0,0-7.64,0l-37.17,21.46c-2.11,1.22-2.11,3.19,0,4.41l44.1,25.47A8.49,8.49,0,0,0,495.88,979.5Z"/><path class="cls-4" d="M548.94,948.86l37.18-21.46c2.1-1.22,2.1-3.19,0-4.41L542,897.53a8.41,8.41,0,0,0-7.63,0L497.2,919c-2.11,1.21-2.11,3.19,0,4.41l44.11,25.46A8.41,8.41,0,0,0,548.94,948.86Z"/><path class="cls-4" d="M602,918.22l37.17-21.46c2.11-1.22,2.11-3.19,0-4.41l-44.11-25.46a8.41,8.41,0,0,0-7.63,0l-37.18,21.46c-2.1,1.22-2.1,3.19,0,4.41l44.11,25.46A8.43,8.43,0,0,0,602,918.22Z"/><path class="cls-4" d="M655.07,887.59l37.17-21.46c2.11-1.22,2.11-3.19,0-4.41l-44.1-25.47a8.49,8.49,0,0,0-7.64,0l-37.17,21.47c-2.11,1.21-2.11,3.19,0,4.4l44.1,25.47A8.43,8.43,0,0,0,655.07,887.59Z"/><path class="cls-4" d="M708.13,857l37.17-21.46c2.11-1.22,2.11-3.19,0-4.41l-44.1-25.46a8.43,8.43,0,0,0-7.64,0l-37.17,21.46c-2.11,1.22-2.11,3.19,0,4.41L700.5,857A8.41,8.41,0,0,0,708.13,857Z"/><path class="cls-4" d="M761.19,826.32l37.18-21.47c2.11-1.21,2.11-3.19,0-4.4L754.26,775a8.41,8.41,0,0,0-7.63,0l-37.18,21.46c-2.11,1.22-2.11,3.2,0,4.41l44.11,25.47A8.47,8.47,0,0,0,761.19,826.32Z"/><path class="cls-4" d="M799.69,744.35l-37.17,21.46c-2.11,1.22-2.11,3.19,0,4.41l44.1,25.46a8.43,8.43,0,0,0,7.64,0l37.17-21.46c2.11-1.22,2.11-3.19,0-4.41l-44.11-25.46A8.41,8.41,0,0,0,799.69,744.35Z"/><path class="cls-4" d="M867.32,765l37.17-21.46c2.11-1.21,2.11-3.19,0-4.41l-44.1-25.46a8.43,8.43,0,0,0-7.64,0l-37.17,21.46c-2.11,1.22-2.11,3.19,0,4.41L859.68,765A8.43,8.43,0,0,0,867.32,765Z"/><path class="cls-4" d="M920.38,734.41,957.56,713c2.1-1.22,2.1-3.19,0-4.41l-44.11-25.47a8.47,8.47,0,0,0-7.63,0l-37.18,21.47c-2.11,1.21-2.11,3.19,0,4.4l44.11,25.47A8.41,8.41,0,0,0,920.38,734.41Z"/><path class="cls-4" d="M186.93,1030.52,149.76,1052c-2.11,1.22-2.11,3.19,0,4.41l44.1,25.46a8.43,8.43,0,0,0,7.64,0l37.17-21.46c2.11-1.22,2.11-3.19,0-4.41l-44.11-25.46A8.41,8.41,0,0,0,186.93,1030.52Z"/><path class="cls-4" d="M254.56,1051.22l37.17-21.47c2.11-1.21,2.11-3.19,0-4.4l-44.1-25.47a8.43,8.43,0,0,0-7.64,0l-37.17,21.46c-2.11,1.22-2.11,3.19,0,4.41l44.1,25.47A8.49,8.49,0,0,0,254.56,1051.22Z"/><path class="cls-4" d="M307.62,1020.58l37.18-21.46c2.1-1.22,2.1-3.19,0-4.41l-44.11-25.46a8.43,8.43,0,0,0-7.64,0l-37.17,21.46c-2.11,1.22-2.11,3.19,0,4.41L300,1020.58A8.41,8.41,0,0,0,307.62,1020.58Z"/><path class="cls-4" d="M360.68,989.94l37.18-21.46c2.11-1.21,2.11-3.19,0-4.41l-44.11-25.46a8.41,8.41,0,0,0-7.63,0l-37.18,21.46c-2.1,1.22-2.1,3.19,0,4.41l44.11,25.46A8.41,8.41,0,0,0,360.68,989.94Z"/><path class="cls-4" d="M413.75,959.31l37.17-21.46c2.11-1.22,2.11-3.19,0-4.41L406.82,908a8.49,8.49,0,0,0-7.64,0L362,929.44c-2.11,1.21-2.11,3.19,0,4.4l44.1,25.47A8.43,8.43,0,0,0,413.75,959.31Z"/><path class="cls-4" d="M466.81,928.67,504,907.21c2.11-1.22,2.11-3.19,0-4.41l-44.1-25.46a8.43,8.43,0,0,0-7.64,0L415.07,898.8c-2.11,1.22-2.11,3.19,0,4.41l44.11,25.46A8.41,8.41,0,0,0,466.81,928.67Z"/><path class="cls-4" d="M519.87,898l37.18-21.47c2.1-1.21,2.1-3.19,0-4.4L512.94,846.7a8.47,8.47,0,0,0-7.63,0l-37.18,21.46c-2.11,1.22-2.11,3.2,0,4.41L512.24,898A8.47,8.47,0,0,0,519.87,898Z"/><path class="cls-4" d="M572.94,867.4l37.17-21.46c2.11-1.22,2.11-3.19,0-4.41L566,816.07a8.41,8.41,0,0,0-7.63,0L521.2,837.53c-2.11,1.22-2.11,3.19,0,4.41l44.1,25.46A8.43,8.43,0,0,0,572.94,867.4Z"/><path class="cls-4" d="M626,836.77l37.17-21.47c2.11-1.21,2.11-3.19,0-4.4l-44.1-25.47a8.43,8.43,0,0,0-7.64,0l-37.17,21.46c-2.11,1.22-2.11,3.19,0,4.41l44.1,25.47A8.49,8.49,0,0,0,626,836.77Z"/><path class="cls-4" d="M679.06,806.13l37.18-21.46c2.1-1.22,2.1-3.19,0-4.41l-44.11-25.47a8.49,8.49,0,0,0-7.64,0l-37.17,21.47c-2.11,1.21-2.11,3.19,0,4.41l44.11,25.46A8.41,8.41,0,0,0,679.06,806.13Z"/><path class="cls-4" d="M717.56,724.16l-37.18,21.46c-2.1,1.22-2.1,3.19,0,4.41l44.11,25.46a8.41,8.41,0,0,0,7.63,0L769.3,754c2.11-1.22,2.11-3.19,0-4.41l-44.11-25.46A8.41,8.41,0,0,0,717.56,724.16Z"/><path class="cls-4" d="M785.19,744.86l37.17-21.46c2.11-1.22,2.11-3.2,0-4.41l-44.1-25.47a8.49,8.49,0,0,0-7.64,0L733.45,715c-2.11,1.21-2.11,3.19,0,4.4l44.1,25.47A8.49,8.49,0,0,0,785.19,744.86Z"/><path class="cls-4" d="M433.74,1023.24l-37.18,21.46c-2.11,1.22-2.11,3.19,0,4.41l44.11,25.46a8.41,8.41,0,0,0,7.63,0l37.18-21.46c2.1-1.22,2.1-3.19,0-4.41l-44.11-25.46A8.41,8.41,0,0,0,433.74,1023.24Z"/><path class="cls-4" d="M486.8,992.6l-37.18,21.46c-2.1,1.22-2.1,3.19,0,4.41l44.11,25.46a8.43,8.43,0,0,0,7.64,0l37.17-21.46c2.11-1.21,2.11-3.19,0-4.41L494.43,992.6A8.41,8.41,0,0,0,486.8,992.6Z"/><path class="cls-4" d="M539.86,962l-37.17,21.47c-2.11,1.21-2.11,3.19,0,4.4l44.1,25.47a8.43,8.43,0,0,0,7.64,0l37.17-21.46c2.11-1.22,2.11-3.19,0-4.41L547.5,962A8.49,8.49,0,0,0,539.86,962Z"/><path class="cls-4" d="M592.92,931.33l-37.17,21.46c-2.11,1.22-2.11,3.19,0,4.41l44.11,25.46a8.41,8.41,0,0,0,7.63,0l37.17-21.46c2.11-1.22,2.11-3.19,0-4.41l-44.1-25.46A8.43,8.43,0,0,0,592.92,931.33Z"/><path class="cls-4" d="M646,900.69l-37.18,21.46c-2.11,1.22-2.11,3.2,0,4.41L652.92,952a8.47,8.47,0,0,0,7.63,0l37.18-21.46c2.11-1.22,2.11-3.2,0-4.41l-44.11-25.47A8.47,8.47,0,0,0,646,900.69Z"/><path class="cls-4" d="M699.05,870.06l-37.17,21.46c-2.11,1.22-2.11,3.19,0,4.41L706,921.39a8.43,8.43,0,0,0,7.64,0l37.17-21.46c2.11-1.22,2.11-3.19,0-4.41l-44.11-25.46A8.41,8.41,0,0,0,699.05,870.06Z"/><path class="cls-4" d="M752.11,839.42l-37.17,21.46c-2.11,1.22-2.11,3.19,0,4.41L759,890.76a8.49,8.49,0,0,0,7.64,0l37.17-21.47c2.11-1.21,2.11-3.19,0-4.4l-44.1-25.47A8.43,8.43,0,0,0,752.11,839.42Z"/><path class="cls-4" d="M805.18,808.79,768,830.25c-2.11,1.21-2.11,3.19,0,4.41l44.11,25.46a8.41,8.41,0,0,0,7.63,0l37.18-21.46c2.1-1.22,2.1-3.19,0-4.41l-44.11-25.46A8.41,8.41,0,0,0,805.18,808.79Z"/><path class="cls-4" d="M858.24,778.15l-37.18,21.46c-2.1,1.22-2.1,3.19,0,4.41l44.11,25.46a8.43,8.43,0,0,0,7.64,0L910,808c2.11-1.22,2.11-3.19,0-4.41l-44.11-25.46A8.41,8.41,0,0,0,858.24,778.15Z"/><path class="cls-4" d="M533.55,1033.21l-37.17,21.46c-2.11,1.22-2.11,3.19,0,4.41l44.11,25.47a8.47,8.47,0,0,0,7.63,0l37.18-21.47c2.1-1.21,2.1-3.19,0-4.4l-44.11-25.47A8.43,8.43,0,0,0,533.55,1033.21Z"/><path class="cls-4" d="M586.62,1002.58,549.44,1024c-2.1,1.21-2.1,3.19,0,4.41l44.11,25.46a8.41,8.41,0,0,0,7.63,0l37.18-21.46c2.11-1.22,2.11-3.19,0-4.41l-44.11-25.46A8.41,8.41,0,0,0,586.62,1002.58Z"/><path class="cls-4" d="M639.68,971.94,602.51,993.4c-2.11,1.22-2.11,3.19,0,4.41l44.1,25.46a8.43,8.43,0,0,0,7.64,0l37.17-21.46c2.11-1.22,2.11-3.19,0-4.41l-44.1-25.46A8.43,8.43,0,0,0,639.68,971.94Z"/><path class="cls-4" d="M692.74,941.3l-37.17,21.47c-2.11,1.21-2.11,3.19,0,4.4l44.11,25.47a8.41,8.41,0,0,0,7.63,0l37.17-21.46c2.11-1.22,2.11-3.19,0-4.41l-44.1-25.47A8.49,8.49,0,0,0,692.74,941.3Z"/><path class="cls-4" d="M745.81,910.67l-37.18,21.46c-2.11,1.22-2.11,3.19,0,4.41L752.74,962a8.41,8.41,0,0,0,7.63,0l37.18-21.46c2.11-1.22,2.11-3.19,0-4.41l-44.11-25.46A8.41,8.41,0,0,0,745.81,910.67Z"/><path class="cls-4" d="M798.87,880,761.7,901.49c-2.11,1.22-2.11,3.19,0,4.41l44.1,25.47a8.49,8.49,0,0,0,7.64,0l37.17-21.47c2.11-1.21,2.11-3.19,0-4.4L806.5,880A8.41,8.41,0,0,0,798.87,880Z"/><path class="cls-4" d="M851.93,849.4l-37.17,21.46c-2.11,1.22-2.11,3.19,0,4.41l44.1,25.46a8.43,8.43,0,0,0,7.64,0l37.17-21.46c2.11-1.22,2.11-3.19,0-4.41l-44.1-25.46A8.43,8.43,0,0,0,851.93,849.4Z"/><path class="cls-4" d="M905,818.76l-37.17,21.46c-2.11,1.22-2.11,3.19,0,4.41l44.11,25.46a8.41,8.41,0,0,0,7.63,0l37.18-21.46c2.1-1.21,2.1-3.19,0-4.41l-44.11-25.46A8.43,8.43,0,0,0,905,818.76Z"/><path class="cls-4" d="M594.88,1125.16l37.17-21.47c2.11-1.21,2.11-3.19,0-4.4L588,1073.82a8.43,8.43,0,0,0-7.64,0l-37.17,21.46c-2.11,1.22-2.11,3.2,0,4.41l44.1,25.47A8.49,8.49,0,0,0,594.88,1125.16Z"/><path class="cls-4" d="M835.43,986.27l37.17-21.46c2.11-1.22,2.11-3.19,0-4.41l-44.1-25.46a8.43,8.43,0,0,0-7.64,0L783.69,956.4c-2.11,1.22-2.11,3.19,0,4.41l44.11,25.46A8.41,8.41,0,0,0,835.43,986.27Z"/><path class="cls-4" d="M888.49,955.64l37.18-21.46c2.11-1.22,2.11-3.19,0-4.41L881.56,904.3a8.47,8.47,0,0,0-7.63,0l-37.18,21.47c-2.11,1.21-2.11,3.19,0,4.4l44.11,25.47A8.41,8.41,0,0,0,888.49,955.64Z"/><path class="cls-4" d="M941.56,925l37.17-21.46c2.11-1.22,2.11-3.19,0-4.41l-44.11-25.46a8.41,8.41,0,0,0-7.63,0l-37.17,21.46c-2.11,1.22-2.11,3.19,0,4.41L933.92,925A8.43,8.43,0,0,0,941.56,925Z"/><path class="cls-4" d="M541.82,1155.79,579,1134.33c2.11-1.22,2.11-3.19,0-4.41l-44.11-25.46a8.41,8.41,0,0,0-7.63,0l-37.17,21.46c-2.11,1.22-2.11,3.19,0,4.41l44.1,25.46A8.43,8.43,0,0,0,541.82,1155.79Z"/><path class="cls-4" d="M488.75,1186.43,525.93,1165c2.1-1.22,2.1-3.19,0-4.41l-44.11-25.47a8.47,8.47,0,0,0-7.63,0L437,1156.56c-2.11,1.21-2.11,3.19,0,4.4l44.11,25.47A8.41,8.41,0,0,0,488.75,1186.43Z"/><path class="cls-4" d="M435.69,1217.06l37.17-21.46c2.11-1.22,2.11-3.19,0-4.41l-44.1-25.46a8.43,8.43,0,0,0-7.64,0L384,1187.19c-2.11,1.22-2.11,3.19,0,4.41l44.1,25.46A8.43,8.43,0,0,0,435.69,1217.06Z"/><path class="cls-4" d="M271.42,1049.34l-63.12,36.44c-2.1,1.22-2.1,3.19,0,4.41l44.11,25.47a8.47,8.47,0,0,0,7.63,0l63.12-36.44c2.11-1.22,2.11-3.2,0-4.41l-44.11-25.47A8.47,8.47,0,0,0,271.42,1049.34Z"/><path class="cls-4" d="M330,1083.15l-63.12,36.44c-2.11,1.21-2.11,3.19,0,4.4L311,1149.46a8.41,8.41,0,0,0,7.63,0L381.71,1113c2.11-1.22,2.11-3.19,0-4.41l-44.11-25.46A8.41,8.41,0,0,0,330,1083.15Z"/><path class="cls-4" d="M923.51,800.21l92.59-53.46c2.11-1.22,2.11-3.19,0-4.41L972,716.88a8.43,8.43,0,0,0-7.64,0l-92.59,53.46c-2.11,1.21-2.11,3.19,0,4.41l44.1,25.46A8.43,8.43,0,0,0,923.51,800.21Z"/><path class="cls-4" d="M785.33,689.44l44.11,25.46a8.41,8.41,0,0,0,7.63,0L899,679.14c2.11-1.21,2.11-3.19,0-4.4L854.9,649.27a8.41,8.41,0,0,0-7.63,0L785.33,685C783.22,686.25,783.22,688.22,785.33,689.44Z"/><path class="cls-4" d="M645.58,1095.88,821.9,994.09c2.11-1.22,2.11-3.19,0-4.41l-44.11-25.47a8.47,8.47,0,0,0-7.63,0L593.84,1066c-2.11,1.22-2.11,3.19,0,4.41L638,1095.88A8.41,8.41,0,0,0,645.58,1095.88Z"/><path class="cls-4" d="M429.79,1093.12,325.4,1153.39c-2.11,1.22-2.11,3.19,0,4.41l44.11,25.46a8.41,8.41,0,0,0,7.63,0L481.53,1123c2.11-1.21,2.11-3.19,0-4.4l-44.11-25.47A8.41,8.41,0,0,0,429.79,1093.12Z"/><path class="cls-4" d="M970.27,840.82l104.38-60.27c2.11-1.21,2.11-3.19,0-4.41l-44.1-25.46a8.43,8.43,0,0,0-7.64,0L918.53,811c-2.11,1.22-2.11,3.19,0,4.41l44.1,25.46A8.43,8.43,0,0,0,970.27,840.82Z"/><text class="cls-5" transform="matrix(0.75, -0.43, 0, 1, 90.34, 760.23)">Make<tspan class="cls-6" x="209.95" y="0"> </tspan><tspan class="cls-7" x="228.33" y="0">y</tspan><tspan class="cls-8" x="271.34" y="0">ou</tspan><tspan class="cls-9" x="369.91" y="0">r</tspan><tspan x="397.9" y="0" xml:space="preserve"> cause kn</tspan><tspan class="cls-10" x="760.84" y="0">o</tspan><tspan x="808.28" y="0">wn.</tspan></text><g class="cls-11"><polygon class="cls-12" points="193.64 939.98 239.95 913.24 239.95 378.89 193.64 405.63 193.64 939.98"/><polygon class="cls-12" points="473.72 243.92 429.61 269.39 429.61 803.74 473.72 778.27 473.72 243.92"/><path class="cls-12" d="M839.82,32.56l-121.3,70V636.94l121.3-70c5-2.87,9-9.52,9-14.86V37C848.81,31.69,844.79,29.69,839.82,32.56Z"/><path class="cls-12" d="M169.38,419.63,37.23,495.93c-5,2.87-9,9.52-9,14.86v515c0,5.34,4,7.34,9,4.47L169.38,954Z"/><polygon class="cls-12" points="612.66 163.71 539.88 205.72 539.88 740.08 612.66 698.06 612.66 163.71"/></g></g></g></svg>