<svg xmlns="http://www.w3.org/2000/svg" viewBox="0 0 1250.22 749.18"><defs><style>.cls-1{fill:#444;}.cls-2{fill:#555;}.cls-3{fill:#263238;}.cls-18,.cls-3{opacity:0.8;}.cls-4{opacity:0.3;}.cls-5{opacity:0.4;}.cls-18,.cls-6{fill:#fff;}.cls-6{opacity:0.04;}.cls-7{fill:#333;}.cls-12,.cls-8{fill:#777;}.cls-10,.cls-12,.cls-16,.cls-9{isolation:isolate;}.cls-10,.cls-12{font-size:95.64px;font-family:Raleway, Raleway;}.cls-10{fill:#368ca3;}.cls-11{letter-spacing:-0.01em;}.cls-13{letter-spacing:-0.01em;}.cls-14{letter-spacing:-0.02em;}.cls-15{fill:#71acbc;}.cls-16{opacity:0.1;}.cls-17{opacity:0.05;}.cls-19{fill:none;}.cls-20{opacity:0.2;}</style></defs><title>Asset 7</title><g id="Layer_2" data-name="Layer 2"><g id="Layer_1-2" data-name="Layer 1"><path class="cls-1" d="M1249.86,236.1l.14-.09v-30.1l-13.38,3.22a72.75,72.75,0,0,0-16.14-12.32L955.85,48.62c-39.17-21.94-102.43-21.49-141.29,1L42.77,496.45,0,506.75V545l1,.1v.21l.05,0c.25,14.44,10,28.78,29.46,39.65L294.82,733c39.12,21.92,102.31,21.46,141.12-1l785.15-454.56C1240.93,266,1250.41,251,1249.86,236.1Z"/><path class="cls-2" d="M814.86,17.17,29,472.16c-38.85,22.49-38.59,58.5.57,80.44L294.1,700.75c39.17,21.93,102.41,21.48,141.26-1l785.89-455c38.85-22.49,38.59-58.51-.57-80.44L956.12,16.16C917-5.77,853.71-5.32,814.86,17.17Z"/><path class="cls-3" d="M1205.89,169.13l-34.64-19.39c-22.17,10.31-52.56,10.86-70.45.53L946,60.87c-16.75-9.67-17.11-25.71-2.44-38.22-38.39-19.11-96.83-18.15-133.36,3L43.77,469.34c-37.88,21.93-37.63,57.05.56,78.43l258,144.48c38.2,21.39,99.87,21,137.75-1l766.38-443.69C1244.33,225.64,1244.08,190.52,1205.89,169.13Z"/><ellipse class="cls-4" cx="994.5" cy="64.5" rx="2.51" ry="1.48" transform="translate(0.09 130.32) rotate(-7.5)"/><ellipse class="cls-4" cx="994" cy="64.5" rx="1" ry="0.49" transform="translate(-1.66 93.69) rotate(-5.39)"/><ellipse class="cls-5" cx="983" cy="58" rx="11.05" ry="5.91" transform="translate(-0.47 107.43) rotate(-6.25)"/><ellipse class="cls-6" cx="983" cy="58" rx="9.04" ry="4.93" transform="translate(-0.28 111.06) rotate(-6.47)"/><path class="cls-7" d="M1095.53,126.18l-94.68-54.67c-1.7-1-1.49-2.71.47-3.84h0a7.45,7.45,0,0,1,6.66-.28l94.68,54.67c1.7,1,1.49,2.71-.48,3.84h0A7.42,7.42,0,0,1,1095.53,126.18Z"/><path class="cls-8" d="M1001.32,70a7.44,7.44,0,0,1,6.66-.27l94.68,54.67a2.56,2.56,0,0,1,.66.53,1.81,1.81,0,0,0-.66-2.91L1008,67.39a7.45,7.45,0,0,0-6.66.28c-1.64,1-2,2.31-1.13,3.31A4.18,4.18,0,0,1,1001.32,70Z"/><g class="cls-9"><text class="cls-10" transform="matrix(0.73, 0.42, -0.87, 0.5, 452.91, 271.3)"><tspan class="cls-11">B</tspan><tspan x="62.93" y="0">yte</tspan></text><text class="cls-12" transform="matrix(0.73, 0.42, -0.87, 0.5, 602.45, 357.64)"><tspan class="cls-13">w</tspan><tspan class="cls-14" x="76.6" y="0">a</tspan><tspan x="127.29" y="0">ve</tspan></text><path class="cls-15" d="M502.72,321.47,747.79,463a4.31,4.31,0,0,0,3.87-.16l3.48-2c1.14-.66,1.27-1.66.28-2.23L513,318.62Z"/><path class="cls-16" d="M539.22,342.55,748.06,463.12a4.07,4.07,0,0,0,3.6-.31l3.48-2c1.14-.66,1.39-1.59.54-2.08L549.13,339.47Z"/><path class="cls-16" d="M575.73,363.62l172.6,99.66a3.94,3.94,0,0,0,3.33-.47l3.48-2c1.14-.66,1.51-1.52.81-1.92l-170.7-98.56Z"/></g><g class="cls-17"><polygon class="cls-18" points="156 609.92 251 663.12 251 349.5 156 404.5 156 609.92"/><polygon class="cls-18" points="531 186.8 462 226.75 462 678.58 531 638.63 531 186.8"/><polygon class="cls-18" points="738 68.68 615 139.89 615 589.08 738 517.87 738 68.68"/><path class="cls-18" d="M120,425.12,43.8,469.24c-37.85,21.91-37.6,57,.56,78.37L120,590Z"/><path class="cls-18" d="M1205.51,169.27l-34.61-19.38c-22.15,10.3-52.52,10.85-70.39.53L945.77,61.09C929,51.43,928.69,35.4,943.34,22.9,927.9,15.22,909.2,10.84,890,9.65v421l316.07-183C1243.93,225.73,1243.68,190.64,1205.51,169.27Z"/></g><path class="cls-19" d="M185.09,643.2l-42.6-24.59c-2.66-1.54-5-.83-6.13,1.47a4.56,4.56,0,0,1,4.13.53l42.6,24.59c3.8,2.2,6.91,8.14,6.91,13.2v.77a8.38,8.38,0,0,1-.77,3.75c1.68-.72,2.77-2.75,2.77-5.75v-.77C192,651.34,188.89,645.4,185.09,643.2Z"/><path class="cls-20" d="M190,658.27c0-5-3.08-10.92-6.86-13.1l-42.27-24.4a4.55,4.55,0,0,0-4.11-.53A8.47,8.47,0,0,0,136,624v.76c0,5,3.08,10.92,6.86,13.1l42.27,24.4a4.55,4.55,0,0,0,4.11.53A8.47,8.47,0,0,0,190,659Z"/><path class="cls-4" d="M1134.43,318l-87.72,50.65c-2.78,1.6-7.69,1.4-10.9-.45l-1.46-.85c-3.21-1.85-3.57-4.69-.78-6.29l87.72-50.65c2.78-1.6,7.69-1.4,10.9.45l1.46.85C1136.86,313.53,1137.22,316.37,1134.43,318Z"/><path class="cls-20" d="M183.14,664.23l-42.28-24.41c-3.77-2.18-6.86-8.08-6.86-13.1V626c0-5,3.09-7.36,6.86-5.18l42.28,24.41c3.77,2.18,6.86,8.08,6.86,13.1v.77C190,664.08,186.91,666.41,183.14,664.23Z"/></g></g></svg>