<svg xmlns="http://www.w3.org/2000/svg" viewBox="0 0 1250.22 749.42"><defs><style>.cls-1{fill:#444;}.cls-2{fill:#555;}.cls-3{fill:#263238;}.cls-19,.cls-3{opacity:0.8;}.cls-4{opacity:0.3;}.cls-5{opacity:0.4;}.cls-6{fill:#333;}.cls-13,.cls-7{fill:#777;}.cls-8{fill:#f4f4f4;}.cls-11,.cls-9{fill:#368ca3;}.cls-10,.cls-11,.cls-13,.cls-17{isolation:isolate;}.cls-11,.cls-13{font-size:95.64px;font-family:Raleway, Raleway;}.cls-12{letter-spacing:-0.01em;}.cls-14{letter-spacing:-0.01em;}.cls-15{letter-spacing:-0.02em;}.cls-16{fill:#71acbc;}.cls-17{opacity:0.1;}.cls-18{opacity:0.1;}.cls-19{fill:#fff;}</style></defs><title>Asset 1</title><g id="Layer_2" data-name="Layer 2"><g id="Layer_1-2" data-name="Layer 1"><path class="cls-1" d="M1250.05,235.85l.14-.08V205.92l-13.38,3.22a73,73,0,0,0-16.13-12.32L956.12,48.67c-39.17-21.93-102.41-21.48-141.26,1L43.26,496.4.5,506.69,0,545v.35l0,0c.24,14.45,10,28.8,29.48,39.69L294.1,733.26c39.17,21.93,102.41,21.48,141.26-1l785.89-455C1241.11,265.76,1250.6,250.73,1250.05,235.85Z"/><path class="cls-2" d="M814.86,17.17,29,472.16c-38.85,22.49-38.59,58.5.57,80.44L294.1,700.75c39.17,21.93,102.41,21.48,141.26-1l785.89-455c38.85-22.49,38.59-58.51-.57-80.44L956.12,16.16C917-5.77,853.71-5.32,814.86,17.17Z"/><path class="cls-3" d="M1205.89,169.13l-34.64-19.39c-22.17,10.31-52.56,10.86-70.45.53L946,60.87c-16.75-9.67-17.11-25.71-2.44-38.22-38.39-19.11-96.83-18.15-133.36,3L43.77,469.34c-37.88,21.93-37.63,57.05.56,78.43l258,144.48c38.2,21.39,99.87,21,137.75-1l766.38-443.69C1244.33,225.64,1244.08,190.52,1205.89,169.13Z"/><ellipse class="cls-4" cx="994.24" cy="64.85" rx="2.73" ry="1.54" transform="translate(-0.54 120.76) rotate(-6.95)"/><ellipse class="cls-4" cx="994.24" cy="64.85" rx="0.94" ry="0.53" transform="translate(-0.54 120.76) rotate(-6.95)"/><ellipse class="cls-5" cx="982.74" cy="57.72" rx="10.81" ry="6.11" transform="translate(0.24 119.32) rotate(-6.95)"/><ellipse class="cls-5" cx="982.74" cy="57.72" rx="9.01" ry="5.1" transform="translate(0.24 119.32) rotate(-6.95)"/><path class="cls-6" d="M1095.53,126.18l-94.68-54.67c-1.7-1-1.49-2.71.47-3.84h0a7.45,7.45,0,0,1,6.66-.28l94.68,54.67c1.7,1,1.49,2.71-.48,3.84h0A7.42,7.42,0,0,1,1095.53,126.18Z"/><path class="cls-7" d="M1001.32,70a7.44,7.44,0,0,1,6.66-.27l94.68,54.67a2.56,2.56,0,0,1,.66.53,1.81,1.81,0,0,0-.66-2.91L1008,67.39a7.45,7.45,0,0,0-6.66.28c-1.64,1-2,2.31-1.13,3.31A4.18,4.18,0,0,1,1001.32,70Z"/><path class="cls-8" d="M567.15,263.05l-11.79-6.81-35,20.22L516,274l35-20.22-11.8-6.81,4.45-2.57,27.92,16.12Z"/><path class="cls-8" d="M558.12,298.27l-4.23-2.44,16.23-9.37q4.5-2.61,5.35-4.65t-1.75-3.55a10.44,10.44,0,0,0-3.09-1.1,21.86,21.86,0,0,0-3.92-.44,26.61,26.61,0,0,0-4.31.27,23.64,23.64,0,0,0-4.34,1l-17.5,10.11-4.24-2.45,40.57-23.42,4.24,2.44L563.35,275a29.29,29.29,0,0,1,9-.52,18.36,18.36,0,0,1,7.37,2.2,6.23,6.23,0,0,1,2.81,2.71,3.44,3.44,0,0,1-.1,2.89,9.54,9.54,0,0,1-2.54,3,31.72,31.72,0,0,1-4.4,3Z"/><path class="cls-8" d="M575.19,308.76a10.37,10.37,0,0,1-4-3.69,6.2,6.2,0,0,1-.79-4.21,9.07,9.07,0,0,1,2.19-4.29,18.22,18.22,0,0,1,4.87-3.89,28.88,28.88,0,0,1,6.72-2.8,33.54,33.54,0,0,1,7.42-1.23,30.62,30.62,0,0,1,7.32.47,20.25,20.25,0,0,1,6.39,2.31,10.05,10.05,0,0,1,4,3.69,6.2,6.2,0,0,1,.72,4.17,9,9,0,0,1-2.2,4.19,18.14,18.14,0,0,1-4.7,3.74c-.4.24-.78.45-1.13.63s-.64.32-.85.41l-20.84-12a12,12,0,0,0-3.09,2.78,5.68,5.68,0,0,0-1.17,2.85,4.3,4.3,0,0,0,.62,2.67,6.33,6.33,0,0,0,2.38,2.21,12.28,12.28,0,0,0,2.62,1.1,20.1,20.1,0,0,0,3,.63,17.12,17.12,0,0,0,3.21.12,13.92,13.92,0,0,0,3.13-.5l2.49,2.78a25,25,0,0,1-4.66.72,28.47,28.47,0,0,1-4.8-.11,27.44,27.44,0,0,1-4.69-.94A19.29,19.29,0,0,1,575.19,308.76Zm25.62-4.84a10.86,10.86,0,0,0,2.92-2.71,5.58,5.58,0,0,0,1.09-2.8,4.32,4.32,0,0,0-.7-2.63,7,7,0,0,0-2.48-2.23,13,13,0,0,0-3.88-1.43,19,19,0,0,0-4.56-.39,22.35,22.35,0,0,0-4.81.66,22,22,0,0,0-4.62,1.69Z"/><path class="cls-9" d="M664.39,326.12l4.1,2.37-39.7,10.58-3.52-2,9.12-11.1-19.18,5.29-3.51-2L630,306.28l4,2.34-15.52,19,16.3-4.52,7.73-9.46,3.51,2-6.2,7.14,12.37-3.58,3.51,2-16.34,4.49-7.83,9.41Z"/><path class="cls-9" d="M648.93,351.34a8.26,8.26,0,0,1-2.77-2.4,4.51,4.51,0,0,1-.86-2.68,4.71,4.71,0,0,1,1-2.68,9.22,9.22,0,0,1,2.83-2.38,15.75,15.75,0,0,1,4.52-1.72,19,19,0,0,1,5.08-.4,22.56,22.56,0,0,1,10.1,3,21.06,21.06,0,0,1,3.32,2.37,12,12,0,0,1,2.26,2.52l2.34-1.34q3.56-2.06,3.85-4.23t-2.88-4q-3.81-2.21-11.38-2.66l1.77-2.63a44.37,44.37,0,0,1,7.7,1.17,23.08,23.08,0,0,1,5.95,2.34c3.21,1.85,4.72,3.9,4.55,6.16s-2.12,4.44-5.83,6.58l-11.83,6.84c-1.15.66-1.3,1.26-.44,1.8L664,359.41c-.39-.14-.76-.29-1.08-.43s-.62-.29-.88-.44a3,3,0,0,1-1.4-1.58c-.23-.65.16-1.3,1.17-2l2-1.24a28.3,28.3,0,0,1-8.33-.19,24.31,24.31,0,0,1-3.58-.91A16.79,16.79,0,0,1,648.93,351.34Zm4.72-1.51a15.23,15.23,0,0,0,5,1.7,21.28,21.28,0,0,0,5.48.34,7.85,7.85,0,0,0,3.19-.79l4.28-2.47a13,13,0,0,0-2.12-2.41,17.17,17.17,0,0,0-2.84-2.06,15.69,15.69,0,0,0-6.78-2.14,10.52,10.52,0,0,0-6.17,1.28,6,6,0,0,0-1.75,1.46,3,3,0,0,0-.7,1.68,2.8,2.8,0,0,0,.53,1.75A5.72,5.72,0,0,0,653.65,349.83Z"/><path class="cls-9" d="M675.86,366.25,695,343.77l4.38,2.53-16.79,18.87,32.72-9.67,4.05,2.33-38.93,11Z"/><path class="cls-9" d="M705,383.69a10.46,10.46,0,0,1-4-3.7,6.2,6.2,0,0,1-.79-4.21,9.07,9.07,0,0,1,2.19-4.29,18.17,18.17,0,0,1,4.86-3.89,29.25,29.25,0,0,1,6.72-2.8,34.84,34.84,0,0,1,7.43-1.23,30.62,30.62,0,0,1,7.32.47,20.25,20.25,0,0,1,6.39,2.31,10,10,0,0,1,3.95,3.7,6.09,6.09,0,0,1,.72,4.17,8.89,8.89,0,0,1-2.19,4.18,18.31,18.31,0,0,1-4.7,3.74c-.41.24-.78.45-1.14.63s-.63.32-.84.41l-20.85-12a12,12,0,0,0-3.08,2.78,5.83,5.83,0,0,0-1.18,2.85,4.38,4.38,0,0,0,.63,2.67,6.25,6.25,0,0,0,2.38,2.21,11.79,11.79,0,0,0,2.62,1.1,18.83,18.83,0,0,0,3,.63,17.12,17.12,0,0,0,3.21.12,14,14,0,0,0,3.14-.5l2.49,2.79a25.3,25.3,0,0,1-4.66.71,28.61,28.61,0,0,1-4.81-.11,27.52,27.52,0,0,1-4.68-.94A19.27,19.27,0,0,1,705,383.69Zm25.62-4.85a10.86,10.86,0,0,0,2.92-2.71,5.58,5.58,0,0,0,1.09-2.8,4.28,4.28,0,0,0-.7-2.62,7,7,0,0,0-2.48-2.24,13,13,0,0,0-3.88-1.43,19,19,0,0,0-4.57-.39,22.34,22.34,0,0,0-4.8.66,22,22,0,0,0-4.62,1.69Z"/><path class="cls-8" d="M745.34,407a10,10,0,0,1-4-3.69,6.21,6.21,0,0,1-.72-4.2,9.15,9.15,0,0,1,2.21-4.25,18.23,18.23,0,0,1,4.81-3.83,28.88,28.88,0,0,1,6.72-2.8,36.07,36.07,0,0,1,7.38-1.26,30.33,30.33,0,0,1,7.27.42,19.68,19.68,0,0,1,6.35,2.25,10.07,10.07,0,0,1,3.93,3.68,6.26,6.26,0,0,1,.74,4.21,9.34,9.34,0,0,1-2.18,4.26,18,18,0,0,1-4.85,3.88,29.46,29.46,0,0,1-6.63,2.78,33.34,33.34,0,0,1-7.38,1.26,31,31,0,0,1-7.3-.43A19.79,19.79,0,0,1,745.34,407ZM752,393.56a13.73,13.73,0,0,0-3.57,2.82,6.76,6.76,0,0,0-1.61,3,4.21,4.21,0,0,0,.37,2.85,5.81,5.81,0,0,0,2.41,2.35,12.26,12.26,0,0,0,4.09,1.4,21.33,21.33,0,0,0,5,.21,24.57,24.57,0,0,0,5.25-.95,22.1,22.1,0,0,0,4.91-2.08,13.69,13.69,0,0,0,3.54-2.8,6.7,6.7,0,0,0,1.64-3,4.24,4.24,0,0,0-.36-2.87,5.8,5.8,0,0,0-2.42-2.36,11.71,11.71,0,0,0-4.11-1.38,21.53,21.53,0,0,0-5-.18,25.31,25.31,0,0,0-5.22,1A22.1,22.1,0,0,0,752,393.56Z"/><path class="cls-8" d="M764.86,417.63l21.79-12.58-3.42-2,3.84-2.22,3.41,2,4-2.31A27,27,0,0,1,805,396.84a13.93,13.93,0,0,1,8.69,1.49,9.53,9.53,0,0,1,2.47,2,6,6,0,0,1,1.29,2.25L812.78,404a3.1,3.1,0,0,0-.78-1.48,6.19,6.19,0,0,0-1.61-1.31,7.66,7.66,0,0,0-5.06-.81,18.27,18.27,0,0,0-6.44,2.45l-4.17,2.4,6.69,3.87-3.84,2.21-6.69-3.86L769.1,420.08Z"/><path class="cls-8" d="M485.49,331.68c-.41-.06-.92-.16-1.54-.28s-1.3-.28-2-.47a18.64,18.64,0,0,1-2.24-.71,14,14,0,0,1-2.14-1,4.38,4.38,0,0,1-2.52-3.16q-.22-1.82,2.9-3.62l19.51-11.26-3.42-2,3.83-2.22,3.42,2,9.67-5.58,4.24,2.45-9.67,5.58,5.63,3.25-3.84,2.22-5.63-3.26-18,10.4c-1,.66-1.48,1.28-1.42,1.88a2.12,2.12,0,0,0,1.21,1.53,9.23,9.23,0,0,0,2.76,1,19.53,19.53,0,0,0,2.17.39Z"/><path class="cls-8" d="M509.5,347.21l-4.23-2.44,16.23-9.37q4.5-2.59,5.35-4.65t-1.75-3.54A10.73,10.73,0,0,0,522,326.1a21,21,0,0,0-3.92-.43,25.49,25.49,0,0,0-4.31.26,25.17,25.17,0,0,0-4.34,1l-17.5,10.11-4.24-2.44,40.57-23.43,4.24,2.45-17.79,10.27a29.39,29.39,0,0,1,9-.53,18.41,18.41,0,0,1,7.37,2.2,6.2,6.2,0,0,1,2.8,2.71,3.39,3.39,0,0,1-.1,2.9,9.26,9.26,0,0,1-2.54,3,30.56,30.56,0,0,1-4.4,3Z"/><path class="cls-8" d="M526.56,357.71a10.56,10.56,0,0,1-4-3.69,6.24,6.24,0,0,1-.79-4.22,9.14,9.14,0,0,1,2.18-4.29,18.38,18.38,0,0,1,4.87-3.89,29.25,29.25,0,0,1,6.72-2.8,34.84,34.84,0,0,1,7.43-1.23,31.14,31.14,0,0,1,7.32.47,20.25,20.25,0,0,1,6.39,2.31,10,10,0,0,1,4,3.7,6.14,6.14,0,0,1,.72,4.17,8.89,8.89,0,0,1-2.19,4.18,18.31,18.31,0,0,1-4.7,3.74q-.62.36-1.14.63c-.35.18-.63.32-.85.41l-20.84-12a11.94,11.94,0,0,0-3.08,2.77,5.77,5.77,0,0,0-1.18,2.85,4.38,4.38,0,0,0,.63,2.67,6.25,6.25,0,0,0,2.38,2.21,11.79,11.79,0,0,0,2.62,1.1,18.83,18.83,0,0,0,3,.63,17.12,17.12,0,0,0,3.21.12,13.83,13.83,0,0,0,3.13-.5l2.5,2.79a25.3,25.3,0,0,1-4.66.71,28.59,28.59,0,0,1-4.81-.11,26.58,26.58,0,0,1-4.68-.94A19.58,19.58,0,0,1,526.56,357.71Zm25.63-4.85a10.66,10.66,0,0,0,2.91-2.71,5.6,5.6,0,0,0,1.1-2.8,4.28,4.28,0,0,0-.7-2.62,7,7,0,0,0-2.49-2.24,13.06,13.06,0,0,0-3.87-1.43,19,19,0,0,0-4.57-.39,22.26,22.26,0,0,0-4.8.66,22,22,0,0,0-4.62,1.69Z"/><path class="cls-8" d="M557.88,375.14l21.79-12.58-3.42-2,3.83-2.21,3.42,2,4-2.31A27,27,0,0,1,598,354.36a13.94,13.94,0,0,1,8.69,1.48,9.86,9.86,0,0,1,2.46,2,5.74,5.74,0,0,1,1.29,2.26l-4.67,1.47a3.09,3.09,0,0,0-.77-1.47,6,6,0,0,0-1.61-1.32,7.67,7.67,0,0,0-5.06-.8,18.35,18.35,0,0,0-6.45,2.44l-4.16,2.41,6.69,3.86-3.84,2.21L583.9,365l-21.79,12.58Z"/><path class="cls-8" d="M580.76,389q-3.94-2.28-2.91-5.21t7.09-6.43l17.4-10.05,4.24,2.45-16.46,9.5q-8.88,5.13-3.54,8.22a15.06,15.06,0,0,0,6.8,1.71,26.41,26.41,0,0,0,8.64-1.07l18.18-10.5,4.23,2.45-23,13.28c-1.14.67-1.29,1.27-.43,1.81l-4.22,2.44q-.64-.24-1.11-.45a7.43,7.43,0,0,1-.8-.4c-1-.55-1.45-1.14-1.45-1.77a2.21,2.21,0,0,1,1.22-1.76l3.36-2.11a30.4,30.4,0,0,1-9.46.35A20.54,20.54,0,0,1,580.76,389Z"/><path class="cls-8" d="M617,407.6c-.41-.06-.92-.15-1.54-.28s-1.3-.28-2-.46a20.73,20.73,0,0,1-2.24-.72,14,14,0,0,1-2.14-1,4.38,4.38,0,0,1-2.52-3.16q-.22-1.82,2.9-3.62l19.51-11.26-3.42-2,3.83-2.22,3.42,2,9.67-5.59,4.24,2.45L637,387.32l5.63,3.25-3.84,2.22-5.63-3.25-18,10.39c-1,.66-1.48,1.29-1.42,1.88a2.12,2.12,0,0,0,1.21,1.53,9.52,9.52,0,0,0,2.76,1.05,21.46,21.46,0,0,0,2.17.38Z"/><path class="cls-8" d="M626.39,415.34c-2.63-1.52-3.6-3.25-2.91-5.21s3.06-4.1,7.1-6.43l17.39-10,4.24,2.44-16.45,9.5q-8.89,5.13-3.55,8.22a15.06,15.06,0,0,0,6.8,1.71,25.88,25.88,0,0,0,8.64-1.07L665.83,404l4.23,2.44-23,13.29c-1.14.66-1.29,1.26-.43,1.8l-4.22,2.44c-.43-.16-.8-.31-1.11-.44s-.57-.27-.8-.4c-1-.56-1.45-1.15-1.45-1.77a2.21,2.21,0,0,1,1.22-1.77l3.36-2.1a30.71,30.71,0,0,1-9.46.35A20.72,20.72,0,0,1,626.39,415.34Z"/><path class="cls-8" d="M686.24,420.7a19.24,19.24,0,0,0-7.49-2.15,22.21,22.21,0,0,0-8.39.87l-17.9,10.33-4.24-2.44,29-16.76,3.94,2.28-6.72,3.89a34,34,0,0,1,8.39-.9,13.47,13.47,0,0,1,6.5,1.47l.82.47a3.07,3.07,0,0,1,.52.37Z"/><path class="cls-8" d="M676.31,444.16a10.37,10.37,0,0,1-4-3.69,6.21,6.21,0,0,1-.79-4.21A9.07,9.07,0,0,1,673.7,432a18.44,18.44,0,0,1,4.87-3.9,28.86,28.86,0,0,1,6.72-2.79,33.54,33.54,0,0,1,7.42-1.23,30.11,30.11,0,0,1,7.32.47,20.15,20.15,0,0,1,6.4,2.31,10,10,0,0,1,4,3.69,6.2,6.2,0,0,1,.72,4.17,9,9,0,0,1-2.2,4.19,18.14,18.14,0,0,1-4.7,3.74l-1.13.63c-.35.18-.64.31-.85.4l-20.84-12a11.79,11.79,0,0,0-3.08,2.78,5.61,5.61,0,0,0-1.18,2.85,4.33,4.33,0,0,0,.62,2.67,6.41,6.41,0,0,0,2.38,2.21,11.87,11.87,0,0,0,2.63,1.09,19.73,19.73,0,0,0,3,.64A19,19,0,0,0,689,444a14.51,14.51,0,0,0,3.13-.5l2.49,2.78A25,25,0,0,1,690,447a29.56,29.56,0,0,1-4.8-.12,25.64,25.64,0,0,1-4.69-.94A19.27,19.27,0,0,1,676.31,444.16Zm25.62-4.84a10.74,10.74,0,0,0,2.92-2.72,5.55,5.55,0,0,0,1.09-2.8,4.29,4.29,0,0,0-.7-2.62,6.9,6.9,0,0,0-2.48-2.23,13.28,13.28,0,0,0-3.87-1.44,20.16,20.16,0,0,0-4.57-.39,23.67,23.67,0,0,0-4.81.66,22.05,22.05,0,0,0-4.62,1.7Z"/><path class="cls-8" d="M397.34,359.47l29-16.75,4.23,2.45-29,16.75Zm34.46-19.89,6.12-3.53,4.23,2.44L436,342Z"/><path class="cls-8" d="M416.57,371.22a17.15,17.15,0,0,1-4.88-4.07,7.87,7.87,0,0,1-1.92-4.74l5.11-.83a9.3,9.3,0,0,0,1.51,4.24,11.08,11.08,0,0,0,3.7,3.26,13.13,13.13,0,0,0,5.6,1.79,8.77,8.77,0,0,0,5.15-1.11,3.19,3.19,0,0,0,1.37-1.29,1.92,1.92,0,0,0,0-1.51,6.69,6.69,0,0,0-1.22-1.85c-.6-.69-1.33-1.48-2.18-2.35-1.06-1.13-1.94-2.13-2.62-3a5.94,5.94,0,0,1-1.25-2.39,2.51,2.51,0,0,1,.46-2.05,7.73,7.73,0,0,1,2.41-1.94,15.91,15.91,0,0,1,4.61-1.8,18.75,18.75,0,0,1,4.88-.46,19.88,19.88,0,0,1,4.78.77,19.45,19.45,0,0,1,4.36,1.85,12.88,12.88,0,0,1,4.24,3.66,6.83,6.83,0,0,1,1.36,4l-4.87.59a5.67,5.67,0,0,0-1.15-3.46,10.4,10.4,0,0,0-3.23-2.8,12.42,12.42,0,0,0-5.07-1.6,8.48,8.48,0,0,0-5.25,1.17,3.78,3.78,0,0,0-1.36,1.14,1.47,1.47,0,0,0-.13,1.27,4.87,4.87,0,0,0,1,1.59c.49.58,1.12,1.26,1.88,2.05a38.43,38.43,0,0,1,3,3.3,7.15,7.15,0,0,1,1.44,2.72,3,3,0,0,1-.4,2.34,7,7,0,0,1-2.51,2.15,16.72,16.72,0,0,1-9.14,2.16A20.4,20.4,0,0,1,416.57,371.22Z"/><path class="cls-8" d="M451.23,391.23c-2.63-1.52-3.61-3.26-2.91-5.22s3.05-4.09,7.09-6.43l17.4-10L477,372l-16.45,9.49q-8.89,5.14-3.55,8.22a15.05,15.05,0,0,0,6.8,1.72,26.21,26.21,0,0,0,8.65-1.08l18.17-10.49,4.24,2.45-23,13.28c-1.15.66-1.29,1.27-.43,1.81l-4.23,2.44c-.42-.17-.79-.31-1.1-.45a8.48,8.48,0,0,1-.8-.4c-1-.55-1.45-1.15-1.46-1.77s.4-1.21,1.23-1.76l3.35-2.11a30.65,30.65,0,0,1-9.45.35A20.72,20.72,0,0,1,451.23,391.23Z"/><path class="cls-8" d="M486,411.32c-2.09-1.21-3.33-2.61-3.74-4.21a6.33,6.33,0,0,1,.73-4.78l-17.56,10.14L461.22,410l40.85-23.58,3.76,2.16-5.45,3.15a30.43,30.43,0,0,1,8.18-.25,17.27,17.27,0,0,1,6.91,2.1,8.35,8.35,0,0,1,3.54,3.45,6,6,0,0,1,.45,4.08,9.9,9.9,0,0,1-2.33,4.21,18.57,18.57,0,0,1-4.78,3.78,33.92,33.92,0,0,1-13.77,4.34,28.24,28.24,0,0,1-6.78-.19A16.59,16.59,0,0,1,486,411.32Zm2.92-3.19a12,12,0,0,0,4.31,1.43,21.23,21.23,0,0,0,5.05.09,25.13,25.13,0,0,0,5.13-1,22.43,22.43,0,0,0,4.58-2,13,13,0,0,0,3.47-2.78,7.08,7.08,0,0,0,1.62-3,4.35,4.35,0,0,0-.39-2.92,6.19,6.19,0,0,0-2.53-2.46,10.76,10.76,0,0,0-2.91-1.07,23.89,23.89,0,0,0-3.7-.53,22.64,22.64,0,0,0-3.94.1,14.17,14.17,0,0,0-3.56.87l-8.28,4.78a8.32,8.32,0,0,0-1.35,2.33,5,5,0,0,0-.29,2.34,4.82,4.82,0,0,0,.82,2.14A5.85,5.85,0,0,0,489,408.13Z"/><path class="cls-8" d="M513.42,427.13a10,10,0,0,1-4-3.69,6.2,6.2,0,0,1-.71-4.2A9.12,9.12,0,0,1,511,415a18.4,18.4,0,0,1,4.81-3.83,29.25,29.25,0,0,1,6.72-2.8,36.07,36.07,0,0,1,7.38-1.26,30.42,30.42,0,0,1,7.28.42,19.31,19.31,0,0,1,6.35,2.25,9.9,9.9,0,0,1,3.92,3.68,6.14,6.14,0,0,1,.74,4.21,9.24,9.24,0,0,1-2.18,4.26,17.91,17.91,0,0,1-4.84,3.88,29.35,29.35,0,0,1-6.64,2.78,33.25,33.25,0,0,1-7.38,1.26,31,31,0,0,1-7.3-.43A19.73,19.73,0,0,1,513.42,427.13ZM520,413.69a13.93,13.93,0,0,0-3.57,2.81,6.65,6.65,0,0,0-1.61,3,4.23,4.23,0,0,0,.36,2.84,5.86,5.86,0,0,0,2.42,2.36,12.2,12.2,0,0,0,4.08,1.4,21.45,21.45,0,0,0,5,.21,25.44,25.44,0,0,0,5.25-.95,22,22,0,0,0,4.9-2.08,13.79,13.79,0,0,0,3.55-2.8,6.79,6.79,0,0,0,1.64-3,4.3,4.3,0,0,0-.36-2.87,5.86,5.86,0,0,0-2.42-2.36,11.71,11.71,0,0,0-4.11-1.38,21.58,21.58,0,0,0-5-.18,25.41,25.41,0,0,0-5.23,1A22,22,0,0,0,520,413.69Z"/><path class="cls-8" d="M553.49,449.62l-4.24-2.44,16.23-9.37q4.68-2.7,5.56-4.62c.59-1.29.05-2.41-1.62-3.38a11.05,11.05,0,0,0-3.18-1.16,23.12,23.12,0,0,0-4-.5,25.34,25.34,0,0,0-4.41.21,23.25,23.25,0,0,0-4.36,1l-17.51,10.11L531.68,437l29-16.75,3.85,2.22-6.23,3.59a29,29,0,0,1,9.2-.33,20.76,20.76,0,0,1,8,2.48,5.82,5.82,0,0,1,2.69,2.61,3.24,3.24,0,0,1-.25,2.81,9.92,9.92,0,0,1-2.63,2.94,35.48,35.48,0,0,1-4.48,3Z"/><path class="cls-8" d="M579.17,465.09c-2.63-1.52-3.6-3.25-2.92-5.21s3.06-4.1,7.1-6.43l17.4-10,4.23,2.44-16.45,9.5q-8.89,5.13-3.55,8.22a15.06,15.06,0,0,0,6.8,1.71,25.94,25.94,0,0,0,8.65-1.07l18.17-10.49,4.24,2.44-23,13.29c-1.15.66-1.29,1.26-.43,1.8l-4.23,2.44-1.1-.44a8.48,8.48,0,0,1-.8-.4c-1-.56-1.45-1.15-1.46-1.77a2.21,2.21,0,0,1,1.23-1.77l3.35-2.1a30.39,30.39,0,0,1-9.46.34A20.54,20.54,0,0,1,579.17,465.09Z"/><path class="cls-8" d="M609.35,482.52a17.2,17.2,0,0,1-4.89-4.08,7.87,7.87,0,0,1-1.91-4.73l5.11-.83a9.19,9.19,0,0,0,1.51,4.24,10.91,10.91,0,0,0,3.69,3.25,13,13,0,0,0,5.61,1.8,8.74,8.74,0,0,0,5.14-1.11,3.28,3.28,0,0,0,1.38-1.29,1.89,1.89,0,0,0,0-1.51,6.63,6.63,0,0,0-1.21-1.85c-.61-.69-1.33-1.48-2.19-2.35-1.06-1.13-1.93-2.13-2.62-3a6.07,6.07,0,0,1-1.25-2.39,2.54,2.54,0,0,1,.46-2.05,7.88,7.88,0,0,1,2.41-1.95,16.29,16.29,0,0,1,4.61-1.79,18.83,18.83,0,0,1,4.88-.46,20,20,0,0,1,9.14,2.61,12.81,12.81,0,0,1,4.24,3.67,6.76,6.76,0,0,1,1.36,4l-4.87.58a5.58,5.58,0,0,0-1.14-3.45,10.33,10.33,0,0,0-3.24-2.8,12.42,12.42,0,0,0-5.06-1.6,8.5,8.5,0,0,0-5.26,1.17,3.73,3.73,0,0,0-1.35,1.14,1.44,1.44,0,0,0-.13,1.27,4.87,4.87,0,0,0,1,1.58c.5.59,1.12,1.27,1.89,2.06a38.14,38.14,0,0,1,3,3.3,7.15,7.15,0,0,1,1.44,2.72,3,3,0,0,1-.39,2.34,7,7,0,0,1-2.51,2.15,16.78,16.78,0,0,1-9.15,2.16A20.48,20.48,0,0,1,609.35,482.52Z"/><path class="cls-8" d="M624.44,490.59l6.22-3.6,3.57,2.06L628,492.64Z"/><path class="cls-8" d="M793.34,115.3l39.47-22.78,14.24,8.23a7.19,7.19,0,0,1,3.08,3,5.26,5.26,0,0,1,.39,3.55,8.56,8.56,0,0,1-1.92,3.58,14.15,14.15,0,0,1-3.81,3.09,25.33,25.33,0,0,1-5.45,2.32,30.4,30.4,0,0,1-6.1,1.16,25.07,25.07,0,0,1-6-.2,15,15,0,0,1-5.17-1.77l-10.2-5.89-14.18,8.18Zm22.95-8.25,10,5.76a8.57,8.57,0,0,0,3.07,1,13.72,13.72,0,0,0,3.63,0,19.82,19.82,0,0,0,3.84-.82,19.24,19.24,0,0,0,3.61-1.58,10.42,10.42,0,0,0,2.71-2.16,5.48,5.48,0,0,0,1.27-2.28,3,3,0,0,0-.25-2.14,4.47,4.47,0,0,0-1.77-1.73l-9.68-5.58Z"/><path class="cls-8" d="M860.48,125.51a19.23,19.23,0,0,0-7.5-2.15,22.18,22.18,0,0,0-8.38.87l-17.9,10.33-4.24-2.44,29-16.75,3.94,2.27-6.72,3.89a34,34,0,0,1,8.39-.9,13.47,13.47,0,0,1,6.5,1.47l.82.47a3.75,3.75,0,0,1,.52.37Z"/><path class="cls-8" d="M849.39,148.31a10,10,0,0,1-3.95-3.7,6.26,6.26,0,0,1-.72-4.2,9.12,9.12,0,0,1,2.21-4.24,18.46,18.46,0,0,1,4.81-3.84,29.23,29.23,0,0,1,6.72-2.79,34.76,34.76,0,0,1,7.38-1.26,30.31,30.31,0,0,1,7.27.41,19.68,19.68,0,0,1,6.35,2.25,10.14,10.14,0,0,1,3.93,3.68,6.23,6.23,0,0,1,.74,4.22A9.24,9.24,0,0,1,882,143.1a18.26,18.26,0,0,1-4.84,3.88,29.53,29.53,0,0,1-6.64,2.77,33.34,33.34,0,0,1-7.38,1.26,30.49,30.49,0,0,1-7.3-.42A19.87,19.87,0,0,1,849.39,148.31ZM856,134.87a13.57,13.57,0,0,0-3.58,2.81,6.79,6.79,0,0,0-1.61,3,4.24,4.24,0,0,0,.37,2.84,5.92,5.92,0,0,0,2.42,2.36,12.12,12.12,0,0,0,4.08,1.39,21.45,21.45,0,0,0,5,.21,24.79,24.79,0,0,0,5.25-.95,22,22,0,0,0,4.9-2.08,13.9,13.9,0,0,0,3.55-2.79,6.77,6.77,0,0,0,1.64-3,4.25,4.25,0,0,0-.37-2.87,5.89,5.89,0,0,0-2.41-2.36,12.06,12.06,0,0,0-4.11-1.37,21.09,21.09,0,0,0-5-.19,26.16,26.16,0,0,0-5.22,1A21.56,21.56,0,0,0,856,134.87Z"/><path class="cls-8" d="M877.39,164.21a8.14,8.14,0,0,1-3.47-3.41,5.83,5.83,0,0,1-.41-4,9.75,9.75,0,0,1,2.35-4.11,19.11,19.11,0,0,1,4.71-3.69,32.32,32.32,0,0,1,6.65-2.87,34.47,34.47,0,0,1,7.19-1.4,28.51,28.51,0,0,1,6.94.25,17.28,17.28,0,0,1,5.93,2q3.18,1.83,3.71,4.19a7.49,7.49,0,0,1-.6,4.85l5.78-3.33,3.75,2.16-28.68,16.56a23.35,23.35,0,0,1-6.48,2.58,27.54,27.54,0,0,1-6.72.71,26.72,26.72,0,0,1-6.51-.94,24.7,24.7,0,0,1-5.82-2.39c-2.85-1.65-4.61-3.32-5.26-5a6.64,6.64,0,0,1,.25-5.28l4.95,0a4.86,4.86,0,0,0,0,4.44,9.39,9.39,0,0,0,3.82,3.69,16.8,16.8,0,0,0,3.85,1.58,17.35,17.35,0,0,0,4.39.61,19.61,19.61,0,0,0,4.63-.54A17.3,17.3,0,0,0,887,169l5.11-3a28.65,28.65,0,0,1-8.1.24,21,21,0,0,1-3.6-.76A15,15,0,0,1,877.39,164.21Zm5.3-1.56a11.16,11.16,0,0,0,3.15,1.18,21,21,0,0,0,3.79.48,21.49,21.49,0,0,0,3.86-.17,15.31,15.31,0,0,0,3.36-.82l8.33-4.82a7.26,7.26,0,0,0,1.36-2.36,5.4,5.4,0,0,0,.23-2.34,4.4,4.4,0,0,0-.87-2.13,6.17,6.17,0,0,0-2-1.72,12.1,12.1,0,0,0-4.39-1.45,21.53,21.53,0,0,0-5.08,0,26.53,26.53,0,0,0-5.16,1.1,22.34,22.34,0,0,0-4.55,2,12.47,12.47,0,0,0-3.44,2.76,6.67,6.67,0,0,0-1.56,3,4.37,4.37,0,0,0,.41,2.9A6,6,0,0,0,882.69,162.65Z"/><path class="cls-8" d="M935.57,168.86a19.23,19.23,0,0,0-7.5-2.15,22.18,22.18,0,0,0-8.38.87l-17.9,10.33-4.24-2.44,29-16.75,3.94,2.28-6.72,3.88a34,34,0,0,1,8.39-.9,13.7,13.7,0,0,1,6.5,1.47l.82.48a3.8,3.8,0,0,1,.52.36Z"/><path class="cls-8" d="M925.64,192.32a10.37,10.37,0,0,1-4-3.69,6.2,6.2,0,0,1-.79-4.21,9.07,9.07,0,0,1,2.19-4.29,18.07,18.07,0,0,1,4.87-3.89,29,29,0,0,1,6.71-2.8,33.73,33.73,0,0,1,7.43-1.23,30.62,30.62,0,0,1,7.32.47,20.25,20.25,0,0,1,6.39,2.31,10,10,0,0,1,4,3.7,6.12,6.12,0,0,1,.71,4.17,8.89,8.89,0,0,1-2.19,4.18,18.31,18.31,0,0,1-4.7,3.74c-.41.24-.78.45-1.13.63s-.64.32-.85.41l-20.85-12a12.12,12.12,0,0,0-3.08,2.78,5.79,5.79,0,0,0-1.18,2.85,4.38,4.38,0,0,0,.63,2.67,6.33,6.33,0,0,0,2.38,2.21,12.28,12.28,0,0,0,2.62,1.1,19.85,19.85,0,0,0,3,.63,17,17,0,0,0,3.2.12,13.92,13.92,0,0,0,3.14-.5l2.49,2.79a26,26,0,0,1-4.66.71,28.61,28.61,0,0,1-4.81-.11,27.52,27.52,0,0,1-4.68-.94A19.29,19.29,0,0,1,925.64,192.32Zm25.62-4.84a10.86,10.86,0,0,0,2.92-2.71,5.58,5.58,0,0,0,1.09-2.8,4.32,4.32,0,0,0-.7-2.63,7,7,0,0,0-2.48-2.23,13,13,0,0,0-3.88-1.43,19,19,0,0,0-4.56-.39,22.35,22.35,0,0,0-4.81.66,22,22,0,0,0-4.62,1.69Z"/><path class="cls-8" d="M951.77,207.41a16.83,16.83,0,0,1-4.88-4.07,7.82,7.82,0,0,1-1.92-4.73l5.11-.84a9.3,9.3,0,0,0,1.51,4.25,11,11,0,0,0,3.7,3.25,13,13,0,0,0,5.61,1.8A8.75,8.75,0,0,0,966,206a3.25,3.25,0,0,0,1.37-1.29,1.92,1.92,0,0,0,0-1.51,6.34,6.34,0,0,0-1.22-1.85c-.6-.69-1.33-1.48-2.18-2.36-1.06-1.12-1.94-2.12-2.62-3a5.82,5.82,0,0,1-1.25-2.39,2.49,2.49,0,0,1,.46-2,7.88,7.88,0,0,1,2.41-1.95,16.5,16.5,0,0,1,4.61-1.8,19.18,19.18,0,0,1,4.88-.45,20,20,0,0,1,9.14,2.61,12.91,12.91,0,0,1,4.24,3.67,6.83,6.83,0,0,1,1.36,4l-4.87.59a5.66,5.66,0,0,0-1.15-3.45,10.4,10.4,0,0,0-3.23-2.8,12.59,12.59,0,0,0-5.07-1.61,8.62,8.62,0,0,0-5.25,1.17,3.75,3.75,0,0,0-1.35,1.15,1.48,1.48,0,0,0-.14,1.27,4.75,4.75,0,0,0,1,1.58c.49.59,1.12,1.27,1.88,2.05a35.5,35.5,0,0,1,3,3.31,7.15,7.15,0,0,1,1.44,2.72,3,3,0,0,1-.4,2.34,7,7,0,0,1-2.5,2.14,16.69,16.69,0,0,1-9.15,2.17A20.53,20.53,0,0,1,951.77,207.41Z"/><path class="cls-8" d="M975.5,221.12a17,17,0,0,1-4.88-4.08,7.75,7.75,0,0,1-1.91-4.73l5.1-.83a9.42,9.42,0,0,0,1.51,4.24A11,11,0,0,0,979,219a13,13,0,0,0,5.61,1.8,8.74,8.74,0,0,0,5.14-1.11,3.25,3.25,0,0,0,1.37-1.29,1.92,1.92,0,0,0,0-1.51,6.47,6.47,0,0,0-1.22-1.85c-.6-.69-1.33-1.48-2.18-2.36-1.06-1.12-1.94-2.12-2.62-3a6,6,0,0,1-1.25-2.4,2.49,2.49,0,0,1,.46-2,7.88,7.88,0,0,1,2.41-1.95,16.5,16.5,0,0,1,4.61-1.8,19.18,19.18,0,0,1,4.88-.45,20,20,0,0,1,9.14,2.61,12.91,12.91,0,0,1,4.24,3.67,6.83,6.83,0,0,1,1.36,4l-4.87.59a5.66,5.66,0,0,0-1.15-3.45,10.29,10.29,0,0,0-3.23-2.8,12.59,12.59,0,0,0-5.07-1.61,8.56,8.56,0,0,0-5.25,1.18,3.65,3.65,0,0,0-1.35,1.14,1.48,1.48,0,0,0-.14,1.27,4.75,4.75,0,0,0,1,1.58c.49.59,1.12,1.27,1.88,2.05a38.23,38.23,0,0,1,3,3.31,7.15,7.15,0,0,1,1.44,2.72,3,3,0,0,1-.39,2.34,7.18,7.18,0,0,1-2.52,2.15,16.72,16.72,0,0,1-9.14,2.16A20.52,20.52,0,0,1,975.5,221.12Z"/><path class="cls-8" d="M990.88,229.35l29-16.75,4.23,2.45-29,16.75Zm34.46-19.89,6.12-3.53,4.23,2.44-6.11,3.53Z"/><path class="cls-8" d="M1009,239.83l19.1-22.48,4.38,2.53-16.79,18.87,32.72-9.67,4,2.34-38.93,11Z"/><path class="cls-8" d="M1038.12,257.27a10.41,10.41,0,0,1-4-3.69,6.21,6.21,0,0,1-.79-4.21,9.14,9.14,0,0,1,2.18-4.29,18.61,18.61,0,0,1,4.87-3.9,29.23,29.23,0,0,1,6.72-2.79,34.24,34.24,0,0,1,7.43-1.24,30.62,30.62,0,0,1,7.32.48,19.77,19.77,0,0,1,6.39,2.31,10,10,0,0,1,4,3.69,6.2,6.2,0,0,1,.72,4.17,8.92,8.92,0,0,1-2.19,4.19,18.53,18.53,0,0,1-4.7,3.74c-.41.23-.79.44-1.14.62a8.73,8.73,0,0,1-.84.41l-20.85-12a11.78,11.78,0,0,0-3.08,2.78,5.7,5.7,0,0,0-1.18,2.85,4.41,4.41,0,0,0,.63,2.67,6.33,6.33,0,0,0,2.38,2.21,11.78,11.78,0,0,0,2.62,1.09,20,20,0,0,0,3,.64,19,19,0,0,0,3.21.12,14.61,14.61,0,0,0,3.14-.51l2.49,2.79a24.48,24.48,0,0,1-4.66.71A28.61,28.61,0,0,1,1047,260a25.7,25.7,0,0,1-4.68-.94A19.58,19.58,0,0,1,1038.12,257.27Zm25.63-4.85a10.71,10.71,0,0,0,2.92-2.71,5.64,5.64,0,0,0,1.09-2.8,4.29,4.29,0,0,0-.7-2.62,6.93,6.93,0,0,0-2.49-2.23,13.06,13.06,0,0,0-3.87-1.44,19.55,19.55,0,0,0-4.57-.39,23.48,23.48,0,0,0-4.8.66,22.05,22.05,0,0,0-4.62,1.7Z"/><path class="cls-8" d="M855.63,183l4.09,2.36-9.2,10.54,18.3-5.29,4.09,2.37-23.09,6.49-10.41,12.8,45.23-12.78,4.72,2.72L835.6,216.71l-3.76-2.16,11.84-14.67-25.46,6.8-3.75-2.17,25.21-31,4.67,2.7-22.08,26.14,22.11-6Z"/><path class="cls-8" d="M864.26,233.9a10.44,10.44,0,0,1-4-3.69,6.27,6.27,0,0,1-.79-4.21,9.07,9.07,0,0,1,2.19-4.29,18.44,18.44,0,0,1,4.87-3.9,29.49,29.49,0,0,1,6.72-2.79,33.54,33.54,0,0,1,7.42-1.23,30.11,30.11,0,0,1,7.32.47,20.39,20.39,0,0,1,6.4,2.31,10,10,0,0,1,4,3.69,6.2,6.2,0,0,1,.72,4.17,8.94,8.94,0,0,1-2.2,4.19,18.25,18.25,0,0,1-4.69,3.74c-.41.24-.79.44-1.14.63s-.64.32-.85.41l-20.84-12a11.79,11.79,0,0,0-3.08,2.78,5.61,5.61,0,0,0-1.18,2.85,4.3,4.3,0,0,0,.62,2.67,6.41,6.41,0,0,0,2.38,2.21,12.37,12.37,0,0,0,2.63,1.1,21,21,0,0,0,3,.63,18,18,0,0,0,3.21.12,13.92,13.92,0,0,0,3.13-.5l2.49,2.78a25.06,25.06,0,0,1-4.65.72,28.56,28.56,0,0,1-4.81-.12,26.2,26.2,0,0,1-4.68-.93A19.17,19.17,0,0,1,864.26,233.9Zm25.62-4.84a10.72,10.72,0,0,0,2.92-2.71,5.73,5.73,0,0,0,1.1-2.8,4.33,4.33,0,0,0-.71-2.63,7,7,0,0,0-2.48-2.23,13,13,0,0,0-3.87-1.43,19.6,19.6,0,0,0-4.57-.4,23.67,23.67,0,0,0-4.81.66,22.63,22.63,0,0,0-4.62,1.7Z"/><path class="cls-8" d="M894.39,251.3a7.4,7.4,0,0,1-3.67-4.05,5.81,5.81,0,0,1,.53-4.7l-5.45,3.15-3.75-2.17,40.57-23.42,4.24,2.44-17.34,10a34.77,34.77,0,0,1,8.45-.38,16.91,16.91,0,0,1,7.12,2.12,7.51,7.51,0,0,1,3.39,3.43,5.88,5.88,0,0,1,.17,4,10.44,10.44,0,0,1-2.57,4.1,21.68,21.68,0,0,1-4.85,3.71,29.41,29.41,0,0,1-6.69,2.81,35.09,35.09,0,0,1-7.26,1.3,29.52,29.52,0,0,1-7-.32A17.57,17.57,0,0,1,894.39,251.3Zm3.17-3.05a12.78,12.78,0,0,0,4.35,1.49,21.8,21.8,0,0,0,5.13.2,25.33,25.33,0,0,0,5.2-.94,21.48,21.48,0,0,0,4.66-2,14.24,14.24,0,0,0,3.48-2.71,7.38,7.38,0,0,0,1.79-3,4.25,4.25,0,0,0-.18-2.9,5.4,5.4,0,0,0-2.43-2.46,10.55,10.55,0,0,0-3.1-1.15,20.93,20.93,0,0,0-3.72-.44,24.07,24.07,0,0,0-4,.18,35.42,35.42,0,0,0-4,.71l-8.39,4.85a4.44,4.44,0,0,0-1.52,2.07,4.36,4.36,0,0,0-.15,2.26,5.35,5.35,0,0,0,.94,2.12A6.22,6.22,0,0,0,897.56,248.25Z"/><path class="cls-8" d="M718.43,226.08,772,211.41l3.56,2.06-25.45,30.87-4.63-2.67,7.52-9-14.34-8.28-15.56,4.37ZM768,215.78l-24.58,6.86,12.51,7.22Z"/><path class="cls-8" d="M766.83,254.67c-2.09-1.21-3.33-2.61-3.74-4.21a6.33,6.33,0,0,1,.73-4.78l-17.56,10.14L742,253.37l40.85-23.58,3.76,2.16-5.45,3.15a30.43,30.43,0,0,1,8.18-.25,17.27,17.27,0,0,1,6.91,2.09,8.49,8.49,0,0,1,3.54,3.46,6,6,0,0,1,.45,4.08,9.9,9.9,0,0,1-2.33,4.21,18.57,18.57,0,0,1-4.78,3.78,33.92,33.92,0,0,1-13.77,4.34,28.24,28.24,0,0,1-6.78-.19A16.59,16.59,0,0,1,766.83,254.67Zm2.92-3.19a11.92,11.92,0,0,0,4.31,1.43,21.23,21.23,0,0,0,5.05.09,25.82,25.82,0,0,0,5.13-1.05,23,23,0,0,0,4.58-2,13,13,0,0,0,3.47-2.78,7.14,7.14,0,0,0,1.62-3,4.35,4.35,0,0,0-.39-2.92,6.13,6.13,0,0,0-2.53-2.46,10.76,10.76,0,0,0-2.91-1.07,23.89,23.89,0,0,0-3.7-.53,21.69,21.69,0,0,0-3.94.1,13.76,13.76,0,0,0-3.56.87l-8.28,4.78a8.32,8.32,0,0,0-1.35,2.33,5,5,0,0,0-.29,2.34,4.82,4.82,0,0,0,.82,2.14A6,6,0,0,0,769.75,251.48Z"/><path class="cls-8" d="M796.67,271.9q-3.13-1.81-3.73-4.21a6.37,6.37,0,0,1,.72-4.78L776.1,273.05l-4.24-2.45L812.71,247l3.76,2.16L811,252.33a30.49,30.49,0,0,1,8.19-.25,17.37,17.37,0,0,1,6.91,2.09,8.49,8.49,0,0,1,3.54,3.46,5.94,5.94,0,0,1,.44,4.08,9.87,9.87,0,0,1-2.32,4.21A18.92,18.92,0,0,1,823,269.7,33.92,33.92,0,0,1,809.23,274a28.34,28.34,0,0,1-6.79-.19A16.59,16.59,0,0,1,796.67,271.9Zm2.93-3.19a11.92,11.92,0,0,0,4.31,1.43,21.13,21.13,0,0,0,5,.09,26.06,26.06,0,0,0,5.14-1.05,23.25,23.25,0,0,0,4.58-2,12.9,12.9,0,0,0,3.46-2.78,6.92,6.92,0,0,0,1.62-3,4.35,4.35,0,0,0-.39-2.92,6.19,6.19,0,0,0-2.53-2.46,10.76,10.76,0,0,0-2.91-1.07,23.71,23.71,0,0,0-3.7-.53,21.56,21.56,0,0,0-3.93.1,13.73,13.73,0,0,0-3.57.87l-8.28,4.78a8.32,8.32,0,0,0-1.35,2.33,5.18,5.18,0,0,0-.29,2.34,4.94,4.94,0,0,0,.82,2.14A5.9,5.9,0,0,0,799.6,268.71Z"/><path class="cls-8" d="M821.89,286.46a17.15,17.15,0,0,1-4.88-4.07,7.87,7.87,0,0,1-1.92-4.73l5.11-.84a9.3,9.3,0,0,0,1.51,4.24,11,11,0,0,0,3.7,3.26,13.13,13.13,0,0,0,5.61,1.79,8.75,8.75,0,0,0,5.14-1.11,3.13,3.13,0,0,0,1.37-1.29,1.86,1.86,0,0,0,0-1.5,6.37,6.37,0,0,0-1.22-1.86c-.6-.69-1.33-1.47-2.18-2.35-1.06-1.13-1.94-2.13-2.62-3a6,6,0,0,1-1.25-2.39,2.51,2.51,0,0,1,.46-2.05,7.73,7.73,0,0,1,2.41-1.94,15.91,15.91,0,0,1,4.61-1.8,18.75,18.75,0,0,1,4.88-.46,19.88,19.88,0,0,1,4.78.77,19.45,19.45,0,0,1,4.36,1.85,12.78,12.78,0,0,1,4.24,3.66,6.85,6.85,0,0,1,1.36,4l-4.87.59a5.67,5.67,0,0,0-1.15-3.46,10.29,10.29,0,0,0-3.23-2.8,12.57,12.57,0,0,0-5.07-1.6,8.62,8.62,0,0,0-5.25,1.17,3.65,3.65,0,0,0-1.35,1.14,1.48,1.48,0,0,0-.14,1.27,4.87,4.87,0,0,0,1,1.59c.49.58,1.12,1.27,1.88,2.05a36.84,36.84,0,0,1,3,3.3,7.15,7.15,0,0,1,1.44,2.72,3,3,0,0,1-.39,2.34,7.13,7.13,0,0,1-2.51,2.15,16.78,16.78,0,0,1-9.15,2.16A20.4,20.4,0,0,1,821.89,286.46Z"/><path class="cls-8" d="M841,296.86l6.45-3.72L851,295.2l-6.45,3.72ZM852.66,290a23.43,23.43,0,0,1,6.17-2.51,21.47,21.47,0,0,1,7-.42c1,.08,2.15.19,3.39.35a33.72,33.72,0,0,0,3.83.26,21.69,21.69,0,0,0,4.05-.36,12.48,12.48,0,0,0,3.95-1.48,6.92,6.92,0,0,0,2.24-1.88,3.24,3.24,0,0,0,.68-1.92,3,3,0,0,0-.66-1.79,6,6,0,0,0-1.79-1.52,10.72,10.72,0,0,0-2.71-1.07,16.63,16.63,0,0,0-3.13-.5,23.32,23.32,0,0,0-3.34,0,27,27,0,0,0-3.23.48l-.67-2.89a24.19,24.19,0,0,1,4.74-.79,25.75,25.75,0,0,1,4.66.09,23,23,0,0,1,4.25.85,16.91,16.91,0,0,1,3.58,1.52,9.86,9.86,0,0,1,2.88,2.4,4.69,4.69,0,0,1,1.1,2.91,5.35,5.35,0,0,1-1.17,3.18,12.62,12.62,0,0,1-3.9,3.2,18.39,18.39,0,0,1-4.12,1.79,21,21,0,0,1-3.94.75,23.81,23.81,0,0,1-3.87,0c-1.29-.11-2.6-.24-3.92-.4-1-.12-1.91-.23-2.9-.33a16.57,16.57,0,0,0-3,0,16.18,16.18,0,0,0-3.14.6,15.69,15.69,0,0,0-3.47,1.52Z"/><g class="cls-10"><text class="cls-11" transform="matrix(0.73, 0.42, -0.87, 0.5, 142.87, 449.3)"><tspan class="cls-12">B</tspan><tspan x="62.93" y="0">yte</tspan></text><text class="cls-13" transform="matrix(0.73, 0.42, -0.87, 0.5, 292.41, 535.64)"><tspan class="cls-14">w</tspan><tspan class="cls-15" x="76.6" y="0">a</tspan><tspan x="127.29" y="0">ve</tspan></text><path class="cls-16" d="M192.72,499.47,437.79,641a4.31,4.31,0,0,0,3.87-.16l3.48-2c1.14-.66,1.27-1.66.28-2.23L203,496.62Z"/><path class="cls-17" d="M229.22,520.55,438.06,641.12a4.07,4.07,0,0,0,3.6-.31l3.48-2c1.14-.66,1.39-1.59.54-2.08L239.13,517.47Z"/><path class="cls-17" d="M265.73,541.62l172.6,99.66a3.94,3.94,0,0,0,3.33-.47l3.48-2c1.14-.66,1.51-1.52.81-1.92l-170.7-98.56Z"/></g><g class="cls-18"><polygon class="cls-19" points="162.03 606.53 255.82 659.05 255.82 349.43 162.03 403.72 162.03 606.53"/><polygon class="cls-19" points="532.5 189.25 464.5 228.61 464.5 673.87 532.5 634.5 532.5 189.25"/><polygon class="cls-19" points="736.48 71.15 614.56 141.74 614.56 586.99 736.48 516.41 736.48 71.15"/><path class="cls-19" d="M126.86,424.09,51.64,467.64c-37.38,21.63-37.13,56.28.55,77.38l74.67,41.81Z"/><path class="cls-19" d="M1198,171.5l-34.17-19.14c-21.86,10.17-51.84,10.72-69.49.53L941.61,64.7c-16.52-9.54-16.87-25.36-2.41-37.7C924,19.41,905.5,15.08,886.54,13.92V429.53l312-180.66C1236,227.24,1235.71,192.59,1198,171.5Z"/></g></g></g></svg>