<svg id="b125ecb1-250e-4613-a4d4-03f0d9553786" data-name="Layer 1" xmlns="http://www.w3.org/2000/svg" viewBox="0 0 1250.221 749.178"><title>phone-promo-1</title><path d="M2039.856,1045.1l.144-.086v-30.1l-13.384,3.221a72.829,72.829,0,0,0-16.138-12.323l-264.624-148.19c-39.175-21.938-102.433-21.486-141.291,1.011l-771.79,446.826L790,1315.748v38.291l1,.105,0,.2.052.026c.246,14.434,10.039,28.775,29.458,39.649l264.309,148.014c39.129,21.912,102.312,21.46,141.123-1.009l785.149-454.56C2030.931,1074.978,2040.411,1059.964,2039.856,1045.1Z" transform="translate(-790 -809)" style="fill:#444"/><path d="M1604.861,826.169l-785.893,454.99c-38.848,22.491-38.59,58.5.576,80.436l264.56,148.154c39.165,21.933,102.408,21.48,141.256-1.011l785.892-454.99c38.848-22.491,38.591-58.5-.575-80.436l-264.56-148.154C1706.951,803.225,1643.709,803.678,1604.861,826.169Z" transform="translate(-790 -809)" style="fill:#555"/><path d="M1995.888,978.132l-34.636-19.4c-22.167,10.311-52.56,10.866-70.45.538l-154.856-89.406c-16.746-9.669-17.1-25.7-2.44-38.214-38.387-19.115-96.83-18.157-133.358,2.99L833.772,1278.335c-37.883,21.933-37.632,57.051.56,78.439l257.992,144.474c38.192,21.389,99.864,20.948,137.748-.985l766.377-443.692C2034.332,1034.639,2034.081,999.52,1995.888,978.132Z" transform="translate(-790 -809)" style="fill:#263238;opacity:0.8"/><ellipse cx="1784.5" cy="873.5" rx="2.514" ry="1.476" transform="translate(-888.721 -568.684) rotate(-7.498)" style="opacity:0.30000000000000004"/><ellipse cx="1784" cy="873.5" rx="1.003" ry="0.493" transform="translate(-864.19 -637.489) rotate(-5.392)" style="opacity:0.30000000000000004"/><ellipse cx="1773" cy="867" rx="11.047" ry="5.913" transform="translate(-873.899 -610.69) rotate(-6.254)" style="opacity:0.4"/><ellipse cx="1773" cy="867" rx="9.04" ry="4.927" transform="translate(-876.349 -603.844) rotate(-6.465)" style="fill:#fff;opacity:0.04"/><path d="M1885.532,935.177l-94.687-54.668c-1.7-.98-1.483-2.709.478-3.841h0a7.424,7.424,0,0,1,6.653-.276l94.687,54.668c1.7.98,1.483,2.709-.478,3.841h0A7.424,7.424,0,0,1,1885.532,935.177Z" transform="translate(-790 -809)" style="fill:#333"/><path d="M1791.323,879.045a7.424,7.424,0,0,1,6.653-.276l94.687,54.668a2.683,2.683,0,0,1,.655.532,1.8,1.8,0,0,0-.655-2.909l-94.687-54.668a7.424,7.424,0,0,0-6.653.276c-1.644.95-2.043,2.314-1.133,3.309A4.028,4.028,0,0,1,1791.323,879.045Z" transform="translate(-790 -809)" style="fill:#777"/><g style="isolation:isolate"><g style="isolation:isolate"><path d="M1301.83,1096.819a27.3,27.3,0,0,1-7.212,2.866,35.746,35.746,0,0,1-7.823,1.03,31.772,31.772,0,0,1-7.572-.737,23.035,23.035,0,0,1-6.528-2.478l-23.461-13.545L1308.039,1050l23.953,13.829a7.333,7.333,0,0,1,3.38,3.482,5.958,5.958,0,0,1,.146,4.053,10.722,10.722,0,0,1-2.521,4.092,19.825,19.825,0,0,1-4.617,3.6,31.337,31.337,0,0,1-10.055,3.615,30.438,30.438,0,0,1-10.776.139,6.51,6.51,0,0,1,1.229,7.117Q1307.212,1093.712,1301.83,1096.819Zm-3.924-3.412a14.636,14.636,0,0,0,3.551-2.78,7.138,7.138,0,0,0,1.771-3.09,4.685,4.685,0,0,0-.255-3.016,5.525,5.525,0,0,0-2.453-2.517l-19.107-11.031-22.28,12.863,18.615,10.747a13.456,13.456,0,0,0,4.493,1.542,21.957,21.957,0,0,0,5.323.252,27.393,27.393,0,0,0,5.457-.961A21.169,21.169,0,0,0,1297.906,1093.407Zm9.927-37.687-21.7,12.528,17.138,9.895a12.34,12.34,0,0,0,4.319,1.44,22.712,22.712,0,0,0,5.142.2,24.822,24.822,0,0,0,5.227-.951,21.554,21.554,0,0,0,4.732-2,15.5,15.5,0,0,0,3.627-2.783,6.845,6.845,0,0,0,1.751-2.958,4.176,4.176,0,0,0-.279-2.839,5.593,5.593,0,0,0-2.4-2.388Z" transform="translate(-790 -809)" style="fill:#368ca3"/><path d="M1283.034,1118.866a6.98,6.98,0,0,0,.576.477,7.383,7.383,0,0,0,.662.429,11.7,11.7,0,0,0,1.676.776,10.858,10.858,0,0,0,1.49.479,5.2,5.2,0,0,0,1.443.019,25.879,25.879,0,0,0,2.888-.532q1.96-.445,5.319-1.328t8.9-2.463L1333.2,1082.6l4.988,2.879-24.377,29.728,50.436-14.682,4.567,2.636-74.694,21.144a23.054,23.054,0,0,1-7.4.987,14.468,14.468,0,0,1-6.513-2.039,11.731,11.731,0,0,1-2.14-1.522Z" transform="translate(-790 -809)" style="fill:#368ca3"/><path d="M1352.1,1140.955c-.447-.067-1.08-.176-1.892-.328s-1.712-.35-2.69-.6-2.024-.562-3.133-.948a18.364,18.364,0,0,1-3.142-1.432,8.912,8.912,0,0,1-2.453-1.99,3.655,3.655,0,0,1-.926-2.3,4.079,4.079,0,0,1,.924-2.479,9.729,9.729,0,0,1,3.011-2.469l30.893-17.836-5.057-2.92,4.472-2.583,5.058,2.92,14.576-8.415,4.777,2.758-14.577,8.415,8.43,4.867-4.473,2.582-8.429-4.866-29.32,16.927q-2.264,1.469-2.115,2.844a3.292,3.292,0,0,0,1.9,2.389,13.743,13.743,0,0,0,4.37,1.613q2.331.438,3.085.491Z" transform="translate(-790 -809)" style="fill:#368ca3"/><path d="M1370.838,1155.119a14.027,14.027,0,0,1-5.6-5.287,8.98,8.98,0,0,1-.944-6.187,14.11,14.11,0,0,1,3.336-6.347,27.938,27.938,0,0,1,7.326-5.811,43.6,43.6,0,0,1,9.943-4.158,50.691,50.691,0,0,1,10.868-1.855,45.569,45.569,0,0,1,10.6.572,27.666,27.666,0,0,1,9.121,3.21,13.807,13.807,0,0,1,5.559,5.266,8.789,8.789,0,0,1,.88,6.1,14.2,14.2,0,0,1-3.317,6.214,27.3,27.3,0,0,1-7.114,5.648q-.663.382-1.36.744a8.059,8.059,0,0,1-1.015.466l-31.259-18.047a19.675,19.675,0,0,0-5.049,4.5,10.562,10.562,0,0,0-2.143,4.645,6.5,6.5,0,0,0,.789,4.329,9.869,9.869,0,0,0,3.822,3.593,18.73,18.73,0,0,0,4.161,1.733,28.589,28.589,0,0,0,9.883,1.068,25.376,25.376,0,0,0,4.98-.807l2.819,3.158a33.42,33.42,0,0,1-6.736,1.131,42.675,42.675,0,0,1-6.978-.108,35.55,35.55,0,0,1-6.731-1.3A27.145,27.145,0,0,1,1370.838,1155.119Zm38.167-6.464a18.793,18.793,0,0,0,4.968-4.448,9.846,9.846,0,0,0,1.976-4.549,6.559,6.559,0,0,0-.949-4.278,10.529,10.529,0,0,0-3.9-3.589,20.342,20.342,0,0,0-6.217-2.251,31.1,31.1,0,0,0-7.41-.548,36.942,36.942,0,0,0-7.85,1.207,37.618,37.618,0,0,0-7.594,2.883Z" transform="translate(-790 -809)" style="fill:#368ca3"/></g><g style="isolation:isolate"><path d="M1487.092,1171.455l4.637,2.677L1432.913,1190l-4-2.312,14.234-17.221-29.829,8.219-4-2.312,27.487-33.957,4.566,2.637-24.008,29.27,26.665-7.366,11.308-13.746,4.074,2.352-9.3,10.887,18.787-5.412,4.074,2.352-23.739,6.569-12.759,15.395Z" transform="translate(-790 -809)" style="fill:#777"/><path d="M1462.711,1208.161a11.952,11.952,0,0,1-4.093-3.558,6.065,6.065,0,0,1-1.111-3.941,7.36,7.36,0,0,1,1.66-3.92,14.023,14.023,0,0,1,4.139-3.443,22.314,22.314,0,0,1,6.548-2.484,28.778,28.778,0,0,1,7.344-.589,32.678,32.678,0,0,1,7.573,1.264,32.723,32.723,0,0,1,12.279,6.658,17.3,17.3,0,0,1,3.471,3.917l3.893-2.247q5.715-3.3,6.3-6.838t-4.128-6.255a24.861,24.861,0,0,0-7.189-2.621,63.189,63.189,0,0,0-9.747-1.228l2.042-3.125a69.982,69.982,0,0,1,11.177,1.576,31.192,31.192,0,0,1,8.434,3.243q6.671,3.852,6.051,8.753t-8.657,9.54L1489.23,1214.1q-2.319,1.34-.633,2.312l-4.97,2.869q-.642-.277-1.177-.536c-.355-.174-.651-.328-.884-.463a2.82,2.82,0,0,1-1.571-2.054q-.163-1.244,1.683-2.472l3.256-2.041a40.441,40.441,0,0,1-12.209-.211A30.218,30.218,0,0,1,1462.711,1208.161Zm5.5-1.8a24.771,24.771,0,0,0,7.9,2.7,30.759,30.759,0,0,0,9.382.3,20.432,20.432,0,0,0,2.459-.445,7.606,7.606,0,0,0,1.966-.73l7.04-4.064a20.176,20.176,0,0,0-3.331-3.836,25.847,25.847,0,0,0-4.478-3.255,25.2,25.2,0,0,0-10.766-3.395,16.85,16.85,0,0,0-9.947,2.052,10.69,10.69,0,0,0-2.833,2.286,5.027,5.027,0,0,0-1.261,2.714,4.551,4.551,0,0,0,.691,2.886A8.522,8.522,0,0,0,1468.211,1206.364Z" transform="translate(-790 -809)" style="fill:#777"/><path d="M1502.031,1229.906l28.26-33.51,4.987,2.879-25.36,29.16,50.577-14.6,4.636,2.677-58.042,16.315Z" transform="translate(-790 -809)" style="fill:#777"/><path d="M1543.489,1254.8a14.009,14.009,0,0,1-5.594-5.286,8.983,8.983,0,0,1-.945-6.188,14.09,14.09,0,0,1,3.337-6.346,27.9,27.9,0,0,1,7.326-5.811,43.552,43.552,0,0,1,9.942-4.159,50.688,50.688,0,0,1,10.869-1.854,45.551,45.551,0,0,1,10.6.572,27.638,27.638,0,0,1,9.123,3.21,13.814,13.814,0,0,1,5.559,5.266,8.794,8.794,0,0,1,.879,6.1,14.208,14.208,0,0,1-3.316,6.214,27.322,27.322,0,0,1-7.115,5.648q-.663.383-1.36.744a7.8,7.8,0,0,1-1.016.465l-31.257-18.046a19.625,19.625,0,0,0-5.049,4.5,10.55,10.55,0,0,0-2.144,4.644,6.506,6.506,0,0,0,.789,4.33,9.88,9.88,0,0,0,3.823,3.593,18.71,18.71,0,0,0,4.161,1.733,28.548,28.548,0,0,0,9.882,1.067,25.268,25.268,0,0,0,4.979-.807l2.82,3.158a33.409,33.409,0,0,1-6.736,1.132,42.789,42.789,0,0,1-6.978-.108,35.723,35.723,0,0,1-6.731-1.3A27.1,27.1,0,0,1,1543.489,1254.8Zm38.167-6.463a18.756,18.756,0,0,0,4.967-4.449,9.836,9.836,0,0,0,1.978-4.549,6.558,6.558,0,0,0-.95-4.277,10.529,10.529,0,0,0-3.9-3.589,20.281,20.281,0,0,0-6.217-2.251,31.1,31.1,0,0,0-7.41-.548,36.949,36.949,0,0,0-7.85,1.206,37.649,37.649,0,0,0-7.593,2.884Z" transform="translate(-790 -809)" style="fill:#777"/></g><path d="M1292.718,1130.471l245.077,141.5a4.3,4.3,0,0,0,3.866-.161l3.477-2.007c1.143-.66,1.267-1.661.278-2.232l-242.4-139.947Z" transform="translate(-790 -809)" style="fill:#71acbc"/><path d="M1329.223,1151.547l208.84,120.574a4.073,4.073,0,0,0,3.6-.315l3.477-2.007c1.143-.66,1.391-1.589.546-2.077l-206.551-119.253Z" transform="translate(-790 -809)" style="opacity:0.100000001490116;isolation:isolate"/><path d="M1365.727,1172.623l172.6,99.653a3.925,3.925,0,0,0,3.33-.47l3.477-2.007c1.143-.66,1.515-1.518.814-1.923l-170.706-98.557Z" transform="translate(-790 -809)" style="opacity:0.100000001490116;isolation:isolate"/></g><g style="opacity:0.05"><polygon points="156 609.922 251 663.122 251 349.496 156 404.496 156 609.922" style="fill:#fff;opacity:0.8"/><polygon points="531 186.801 462 226.748 462 678.582 531 638.634 531 186.801" style="fill:#fff;opacity:0.8"/><polygon points="738 68.68 615 139.89 615 589.079 738 517.868 738 68.68" style="fill:#fff;opacity:0.8"/><path d="M910,1234.122l-76.2,44.115c-37.854,21.916-37.6,57.006.56,78.377L910,1398.972Z" transform="translate(-790 -809)" style="fill:#fff;opacity:0.8"/><path d="M1995.513,978.269l-34.61-19.382c-22.149,10.3-52.519,10.858-70.394.537l-154.735-89.336c-16.733-9.661-17.088-25.685-2.439-38.183-15.44-7.689-34.136-12.069-53.335-13.25v420.981l316.073-182.99C2033.926,1034.732,2033.675,999.64,1995.513,978.269Z" transform="translate(-790 -809)" style="fill:#fff;opacity:0.8"/></g><path d="M975.092,1452.2l-42.6-24.594c-2.667-1.54-4.989-.834-6.139,1.472a4.576,4.576,0,0,1,4.139.528l42.6,24.594c3.8,2.193,6.908,8.133,6.908,13.2v.768a8.411,8.411,0,0,1-.769,3.75c1.676-.717,2.769-2.753,2.769-5.75v-.768C982,1460.336,978.892,1454.4,975.092,1452.2Z" transform="translate(-790 -809)" style="fill:none"/><path d="M980,1467.273c0-5.027-3.085-10.921-6.855-13.1l-42.275-24.407a4.538,4.538,0,0,0-4.107-.524,8.345,8.345,0,0,0-.763,3.721v.762c0,5.027,3.085,10.921,6.855,13.1l42.275,24.407a4.538,4.538,0,0,0,4.107.524,8.345,8.345,0,0,0,.763-3.721Z" transform="translate(-790 -809)" style="opacity:0.2"/><path d="M1924.433,1126.973l-87.718,50.645c-2.783,1.607-7.69,1.4-10.9-.452l-1.461-.844c-3.214-1.855-3.566-4.688-.783-6.295l87.718-50.645c2.783-1.607,7.69-1.4,10.9.452l1.461.844C1926.864,1122.533,1927.216,1125.366,1924.433,1126.973Z" transform="translate(-790 -809)" style="opacity:0.30000000000000004"/><path d="M973.143,1473.231l-42.286-24.414c-3.771-2.177-6.857-8.073-6.857-13.1v-.762c0-5.028,3.086-7.361,6.857-5.184l42.286,24.414c3.771,2.177,6.857,8.073,6.857,13.1v.762C980,1473.075,976.914,1475.408,973.143,1473.231Z" transform="translate(-790 -809)" style="opacity:0.2"/></svg>