<svg xmlns="http://www.w3.org/2000/svg" viewBox="0 0 310.9 140"><defs><style>.cls-1{fill:#263238;}</style></defs><title>Layer 2</title><g id="Layer_2" data-name="Layer 2"><g id="Layer_1-2" data-name="Layer 1"><g id="Layer_2-2" data-name="Layer 2"><g id="Layer_3" data-name="Layer 3"><path class="cls-1" d="M266.65,46c-3.35-.46-5.68-.07-7.3,1-1.44-1.06-3.49-1.45-6.46-1-19.51,3-41.71-9.62-39,1,3.55,14,13.3,21,23.94,20,5.38-.51,10.92.85,15.4,1.52-7.88,11.27-7.64,20.21-20.58,18.48-19.11-2.55-28.79-10.11-43.25-22.74C136.38,13.16,86.11,0,60.15,0,29,0-8.35,11,1.65,57c6.55,30.17,18.54,67.18,49,68h88c2,5,20.92,15,27,15s8-8.92,8-15h22.5c53.41,0,72.43-19.66,72.49-56.82,4.57-.69,9.85-1.61,15-1.18,12,1,23-6,27-20C313.68,36.38,288.65,49,266.65,46Z"/></g></g></g></g></svg>