<?xml version="1.0" encoding="utf-8"?>
<!-- Generator: Adobe Illustrator 23.0.1, SVG Export Plug-In . SVG Version: 6.00 Build 0)  -->
<svg version="1.1" id="Layer_1" xmlns="http://www.w3.org/2000/svg" xmlns:xlink="http://www.w3.org/1999/xlink" x="0px" y="0px"
	 viewBox="0 0 310.9 140" style="enable-background:new 0 0 310.9 140;" xml:space="preserve">
<style type="text/css">
	.st0{fill:#f4f4f4;}
</style>
<title>Layer 2</title>
<g>
	<g id="Layer_1-2">
		<g id="Layer_2-2">
			<g id="Layer_3">
				<path class="st0" d="M266.6,46c-3.4-0.5-5.7-0.1-7.3,1c-1.4-1.1-3.5-1.5-6.5-1c-19.5,3-41.7-9.6-39,1c3.6,14,13.3,21,23.9,20
					c5.4-0.5,10.9,0.8,15.4,1.5c-7.9,11.3-7.6,20.2-20.6,18.5c-19.1-2.6-28.8-10.1-43.2-22.7C136.4,13.2,86.1,0,60.2,0
					C29,0-8.4,11,1.6,57c6.5,30.2,18.5,67.2,49,68h88c2,5,20.9,15,27,15s8-8.9,8-15h22.5c53.4,0,72.4-19.7,72.5-56.8
					c4.6-0.7,9.9-1.6,15-1.2c12,1,23-6,27-20C313.7,36.4,288.6,49,266.6,46z"/>
			</g>
		</g>
	</g>
</g>
</svg>
