<svg xmlns="http://www.w3.org/2000/svg" viewBox="0 0 1920 1080"><title>mow_pattern</title><g id="bdd3f286-d601-44d6-940e-e75ea82d0033" data-name="Layer 1" style="opacity:0.1"><rect y="605.714" width="1920" height="20"/><rect y="1060" width="1920" height="20"/><rect y="656.19" width="1920" height="20"/><rect y="706.667" width="1920" height="20"/><rect y="757.143" width="1920" height="20"/><rect y="807.619" width="1920" height="20"/><rect y="858.095" width="1920" height="20"/><rect y="908.571" width="1920" height="20"/><rect y="959.048" width="1920" height="20"/><rect y="1009.524" width="1920" height="20"/><rect width="1920" height="20"/><rect x="-0.5" y="252.381" width="1920" height="20"/><rect x="-0.5" y="302.857" width="1920" height="20"/><rect x="-0.5" y="353.333" width="1920" height="20"/><rect x="-0.5" y="50.476" width="1920" height="20"/><rect x="-0.5" y="100.952" width="1920" height="20"/><rect x="-0.5" y="151.429" width="1920" height="20"/><rect x="-0.5" y="201.905" width="1920" height="20"/><rect x="-0.5" y="403.81" width="1920" height="20"/><rect x="-0.5" y="454.286" width="1920" height="20"/><rect x="-0.5" y="504.762" width="1920" height="20"/><rect x="-0.5" y="555.238" width="1920" height="20"/></g></svg>