<svg xmlns="http://www.w3.org/2000/svg" viewBox="0 0 1920 1080"><title>mow_pattern</title><g id="feae7375-2484-452a-ad96-903cae577c72" data-name="Layer 3" style="opacity:0.1"><polygon points="176.725 0 0 176.725 0 222.198 222.198 0 176.725 0" style="fill:none"/><polygon points="1920 616.939 1455.939 1081 1501.411 1081 1920 662.411 1920 616.939" style="fill:none"/><polygon points="1873.129 0 792.129 1081 837.601 1081 1918.601 0 1873.129 0" style="fill:none"/><polygon points="0 0 0 0.928 0.927 0 0 0" style="fill:none"/><polygon points="1135.562 0 54.562 1081 100.034 1081 1181.034 0 1135.562 0" style="fill:none"/><polygon points="29.212 0 0 29.212 0 74.684 74.684 0 29.212 0" style="fill:none"/><polygon points="1920 764.452 1603.452 1081 1648.925 1081 1920 809.925 1920 764.452" style="fill:none"/><polygon points="1356.832 0 275.832 1081 321.304 1081 1402.304 0 1356.832 0" style="fill:none"/><polygon points="1920 469.425 1308.426 1081 1353.898 1081 1920 514.898 1920 469.425" style="fill:none"/><polygon points="1920 838.209 1677.209 1081 1722.681 1081 1920 883.681 1920 838.209" style="fill:none"/><polygon points="1920 26.885 865.885 1081 911.358 1081 1920 72.358 1920 26.885" style="fill:none"/><polygon points="1920 321.912 1160.912 1081 1206.385 1081 1920 367.385 1920 321.912" style="fill:none"/><polygon points="1209.319 0 128.319 1081 173.791 1081 1254.791 0 1209.319 0" style="fill:none"/><polygon points="1920 395.669 1234.669 1081 1280.141 1081 1920 441.141 1920 395.669" style="fill:none"/><polygon points="1920 911.966 1750.966 1081 1796.438 1081 1920 957.438 1920 911.966" style="fill:none"/><polygon points="1920 248.155 1087.156 1081 1132.628 1081 1920 293.628 1920 248.155" style="fill:none"/><polygon points="1920 985.722 1824.722 1081 1870.195 1081 1920 1031.195 1920 985.722" style="fill:none"/><polygon points="1920 1081 1920 1059.479 1898.479 1081 1920 1081" style="fill:none"/><polygon points="1920 100.642 939.642 1081 985.115 1081 1920 146.115 1920 100.642" style="fill:none"/><polygon points="1283.075 0 202.075 1081 247.548 1081 1328.548 0 1283.075 0" style="fill:none"/><polygon points="1920 174.399 1013.399 1081 1058.871 1081 1920 219.871 1920 174.399" style="fill:none"/><polygon points="102.969 0 0 102.969 0 148.441 148.441 0 102.969 0" style="fill:none"/><polygon points="914.292 0 0 914.292 0 959.764 959.764 0 914.292 0" style="fill:none"/><polygon points="1504.345 0 423.345 1081 468.818 1081 1549.818 0 1504.345 0" style="fill:none"/><polygon points="840.535 0 0 840.535 0 886.008 886.008 0 840.535 0" style="fill:none"/><polygon points="471.752 0 0 471.752 0 517.224 517.224 0 471.752 0" style="fill:none"/><polygon points="1651.859 0 570.859 1081 616.331 1081 1697.331 0 1651.859 0" style="fill:none"/><polygon points="545.509 0 0 545.509 0 590.981 590.981 0 545.509 0" style="fill:none"/><polygon points="1578.102 0 497.102 1081 542.574 1081 1623.574 0 1578.102 0" style="fill:none"/><polygon points="693.022 0 0 693.022 0 738.494 738.494 0 693.022 0" style="fill:none"/><polygon points="766.779 0 0 766.779 0 812.251 812.251 0 766.779 0" style="fill:none"/><polygon points="619.265 0 0 619.265 0 664.738 664.738 0 619.265 0" style="fill:none"/><polygon points="324.239 0 0 324.239 0 369.711 369.711 0 324.239 0" style="fill:none"/><polygon points="1061.805 0 0 1061.805 0 1081 26.278 1081 1107.278 0 1061.805 0" style="fill:none"/><polygon points="250.482 0 0 250.482 0 295.954 295.954 0 250.482 0" style="fill:none"/><polygon points="1430.589 0 349.589 1081 395.061 1081 1476.061 0 1430.589 0" style="fill:none"/><polygon points="1920 690.696 1529.696 1081 1575.168 1081 1920 736.168 1920 690.696" style="fill:none"/><polygon points="1920 543.182 1382.182 1081 1427.655 1081 1920 588.655 1920 543.182" style="fill:none"/><polygon points="988.049 0 0 988.049 0 1033.521 1033.521 0 988.049 0" style="fill:none"/><polygon points="1799.372 0 718.372 1081 763.844 1081 1844.844 0 1799.372 0" style="fill:none"/><polygon points="397.995 0 0 397.995 0 443.468 443.468 0 397.995 0" style="fill:none"/><polygon points="1725.615 0 644.615 1081 690.088 1081 1771.088 0 1725.615 0" style="fill:none"/><polygon points="0.927 0 0 0.928 0 29.212 29.212 0 0.927 0"/><polygon points="74.684 0 0 74.684 0 102.969 102.969 0 74.684 0"/><polygon points="148.441 0 0 148.441 0 176.725 176.725 0 148.441 0"/><polygon points="222.198 0 0 222.198 0 250.482 250.482 0 222.198 0"/><polygon points="295.954 0 0 295.954 0 324.239 324.239 0 295.954 0"/><polygon points="369.711 0 0 369.711 0 397.995 397.995 0 369.711 0"/><polygon points="443.468 0 0 443.468 0 471.752 471.752 0 443.468 0"/><polygon points="517.224 0 0 517.224 0 545.509 545.509 0 517.224 0"/><polygon points="590.981 0 0 590.981 0 619.265 619.265 0 590.981 0"/><polygon points="664.738 0 0 664.738 0 693.022 693.022 0 664.738 0"/><polygon points="738.494 0 0 738.494 0 766.779 766.779 0 738.494 0"/><polygon points="812.251 0 0 812.251 0 840.535 840.535 0 812.251 0"/><polygon points="886.008 0 0 886.008 0 914.292 914.292 0 886.008 0"/><polygon points="959.764 0 0 959.764 0 988.049 988.049 0 959.764 0"/><polygon points="1033.521 0 0 1033.521 0 1061.805 1061.805 0 1033.521 0"/><polygon points="1107.278 0 26.278 1081 54.562 1081 1135.562 0 1107.278 0"/><polygon points="1181.034 0 100.034 1081 128.319 1081 1209.319 0 1181.034 0"/><polygon points="1254.791 0 173.791 1081 202.075 1081 1283.075 0 1254.791 0"/><polygon points="1328.548 0 247.548 1081 275.832 1081 1356.832 0 1328.548 0"/><polygon points="1402.304 0 321.304 1081 349.589 1081 1430.589 0 1402.304 0"/><polygon points="1476.061 0 395.061 1081 423.345 1081 1504.345 0 1476.061 0"/><polygon points="1549.818 0 468.818 1081 497.102 1081 1578.102 0 1549.818 0"/><polygon points="1623.574 0 542.574 1081 570.859 1081 1651.859 0 1623.574 0"/><polygon points="1697.331 0 616.331 1081 644.615 1081 1725.615 0 1697.331 0"/><polygon points="1771.088 0 690.088 1081 718.372 1081 1799.372 0 1771.088 0"/><polygon points="1844.844 0 763.844 1081 792.129 1081 1873.129 0 1844.844 0"/><polygon points="1920 0 1918.601 0 837.601 1081 865.885 1081 1920 26.885 1920 0"/><polygon points="1920 72.358 911.358 1081 939.642 1081 1920 100.642 1920 72.358"/><polygon points="1920 146.115 985.115 1081 1013.399 1081 1920 174.399 1920 146.115"/><polygon points="1920 219.871 1058.871 1081 1087.156 1081 1920 248.155 1920 219.871"/><polygon points="1920 293.628 1132.628 1081 1160.912 1081 1920 321.912 1920 293.628"/><polygon points="1920 367.385 1206.385 1081 1234.669 1081 1920 395.669 1920 367.385"/><polygon points="1920 441.141 1280.141 1081 1308.426 1081 1920 469.425 1920 441.141"/><polygon points="1920 514.898 1353.898 1081 1382.182 1081 1920 543.182 1920 514.898"/><polygon points="1920 588.655 1427.655 1081 1455.939 1081 1920 616.939 1920 588.655"/><polygon points="1920 662.411 1501.411 1081 1529.696 1081 1920 690.696 1920 662.411"/><polygon points="1920 736.168 1575.168 1081 1603.452 1081 1920 764.452 1920 736.168"/><polygon points="1920 809.925 1648.925 1081 1677.209 1081 1920 838.209 1920 809.925"/><polygon points="1920 883.681 1722.681 1081 1750.966 1081 1920 911.966 1920 883.681"/><polygon points="1920 957.438 1796.438 1081 1824.722 1081 1920 985.722 1920 957.438"/><polygon points="1920 1059.479 1920 1031.195 1870.195 1081 1898.479 1081 1920 1059.479"/></g></svg>