<svg xmlns="http://www.w3.org/2000/svg" viewBox="0 0 476.515 82.025"><title>Asset 2</title><g id="bb23a930-7ce9-4e63-a2fe-e61282b3c70a" data-name="Layer 2"><g id="e534e857-eb0e-4279-aaaa-7157637450cc" data-name="Layer 1"><rect x="1.012" y="1.012" width="205.5" height="80" style="fill:#fff;stroke:#444;stroke-miterlimit:10;stroke-width:2.02488803863525px"/><rect x="205.512" y="1.012" width="270" height="80" style="fill:#444;stroke:#444;stroke-miterlimit:10;stroke-width:2.00550207028365px"/><path d="M15.317,15.99h6.8v22.6h4.153c1.4,0,1.888-.539,1.888-2.427V19.874h6.851l-.054,15.211c0,4.316-1.024,6.635-4.477,7.336,1.51.539,2.589,1.618,3.29,3.937l1.672,5.448c.432,1.456.971,1.726,3.722,1.726h6.149v5.5H38.349c-5.555,0-7.983-1.187-9.493-6.2l-1.511-5.017c-.809-2.589-1.942-3.29-3.775-3.29H22.113V67.017h-6.8Z" style="fill:#444"/><path d="M55.56,25.753c1.618-7.443,3.452-9.6,10.464-9.6h6.365V51.591c0,1.779.108,1.941,2.859,1.941h7.5v5.5h-9.44c-5.825,0-7.713-1.349-7.713-7.012v-7.5H58.311c-1.51,7.336-3.182,15.265-4.693,22.493H46.66ZM65.593,38.591V22.085h-.054c-2.266,0-2.8.271-3.506,3.939L59.552,38.591Z" style="fill:#444"/><path d="M109.557,25.646v31.77c0,5.718-2.751,9.6-9.385,9.6H89.492V15.99h10.733C107.076,15.99,109.557,19.874,109.557,25.646ZM96.288,61.03h3.4c2.32,0,3.074-.756,3.074-3.614V25.646c0-2.913-.646-3.722-2.912-3.722h-3.56Z" style="fill:#444"/><path d="M136.8,15.99h7.605v5.934H136.8c-2.32,0-2.751.863-2.751,3.722V38.537h7.444v5.987H134.05V57.362c0,3.29,1.4,3.668,3.721,3.668h6.635v5.987h-6.58c-7.5,0-10.572-2.59-10.572-9.655V25.646C127.254,18.2,131.3,15.99,136.8,15.99Z" style="fill:#444"/><path d="M177.69,25.646l-.108,25.945c0,1.779.162,1.941,2.859,1.941h7.552v5.5h-9.386c-5.933,0-7.767-1.349-7.767-7.012V25.646c0-2.913-.648-3.722-2.859-3.722h-3.56V66.639h-6.8V15.99H168.3C175.209,15.99,177.69,19.874,177.69,25.646Z" style="fill:#444"/><path d="M225.731,25.052V58.333c0,4.476,1.834,4.963,4.962,4.963h4.963V48.246h-4.315l-1.834-4.153h11.111v23.3h-9.87c-7.12,0-9.98-2.426-9.98-9.061V25.052c0-7.012,3.777-9.062,8.9-9.062h8.792v4.1h-8.792C226.324,20.09,225.731,21.168,225.731,25.052Z" style="fill:#fff"/><path d="M275.682,25.052v9.71c0,3.829-.592,7.659-4.26,8.36.161.054,1.4.539,2.535,4.153l1.618,5.286c.755,2.32,1.294,2.589,4.908,2.589h5.987v3.884h-6.8c-5.233,0-7.5-1.133-8.955-5.772L269.1,48.03c-1.025-3.344-1.834-4.153-4.369-4.153h-2.967V67.394H256.8V15.99h10.141C273.363,15.99,275.682,19.658,275.682,25.052ZM261.766,39.724h6.473c1.618,0,2.481-.755,2.481-3.56V25.052c0-3.938-.971-4.962-4.153-4.962h-4.8Z" style="fill:#fff"/><path d="M294.134,15.99H299.1v51.4h-4.962Z" style="fill:#fff"/><path d="M326.446,15.99h8.037v4.1H326.5c-3.345,0-3.938,1.078-3.938,4.962V39.67h8.9v4.153h-8.9V67.394H317.6V25.052C317.6,18.04,321.321,15.99,326.446,15.99Z" style="fill:#fff"/><path d="M356.17,15.99h8.037v4.1h-7.984c-3.344,0-3.937,1.078-3.937,4.962V39.67h8.9v4.153h-8.9V67.394h-4.963V25.052C347.323,18.04,351.045,15.99,356.17,15.99Z" style="fill:#fff"/><path d="M377.047,15.99h4.963v51.4h-4.963Z" style="fill:#fff"/><path d="M417.827,15.99v4.1h-7.551v47.3h-4.963V20.09h-7.5v-4.1Z" style="fill:#fff"/><path d="M430.775,15.99h4.963V39.724h9.008V20.09h4.962V52.022c0,2.859.216,3.128,4.046,3.128h6.85v3.884h-8.792c-5.394,0-7.066-1.187-7.066-6.257V43.823h-9.008V67.394h-4.963Z" style="fill:#fff"/></g></g></svg>