<?xml version="1.0" encoding="UTF-8"?>
<svg id="Layer_2" data-name="Layer 2" xmlns="http://www.w3.org/2000/svg" viewBox="0 0 600 68.07">
  <defs>
    <style>
      .cls-1 {
        fill: #fff;
      }
    </style>
  </defs>
  <g id="Layer_1-2" data-name="Layer 1">
    <g>
      <path class="cls-1" d="M0,66.95V1.12h13.29v29.23L40.14,1.12h17.87l-24.79,25.64,26.13,40.19h-17.2l-18.1-30.89-10.78,11v19.89H0Z"/>
      <path class="cls-1" d="M75.57,33.81l-11.45-2.07c1.29-4.61,3.5-8.02,6.65-10.24s7.81-3.32,14.01-3.32c5.63,0,9.82.67,12.57,2s4.69,3.02,5.81,5.07,1.68,5.81,1.68,11.29l-.13,14.73c0,4.19.2,7.28.61,9.27s1.16,4.12,2.27,6.4h-12.48c-.33-.84-.73-2.08-1.21-3.73-.21-.75-.36-1.24-.45-1.48-2.16,2.1-4.46,3.67-6.92,4.71s-5.07,1.57-7.86,1.57c-4.91,0-8.78-1.33-11.61-4s-4.24-6.03-4.24-10.1c0-2.69.64-5.1,1.93-7.21s3.09-3.73,5.41-4.85,5.67-2.1,10.04-2.94c5.9-1.11,9.98-2.14,12.26-3.1v-1.26c0-2.42-.6-4.15-1.8-5.19s-3.46-1.55-6.78-1.55c-2.25,0-4,.44-5.25,1.32s-2.28,2.43-3.05,4.65ZM92.46,44.05c-1.62.54-4.18,1.18-7.68,1.93s-5.79,1.48-6.87,2.2c-1.65,1.17-2.47,2.65-2.47,4.45s.66,3.29,1.98,4.58,2.99,1.93,5.03,1.93c2.28,0,4.45-.75,6.51-2.25,1.53-1.14,2.53-2.53,3.01-4.18.33-1.08.49-3.13.49-6.15v-2.51Z"/>
      <path class="cls-1" d="M161.02,66.95h-11.72v-7c-1.95,2.72-4.24,4.75-6.89,6.08s-5.32,2-8.02,2c-5.48,0-10.17-2.21-14.08-6.62s-5.86-10.57-5.86-18.48,1.9-14.23,5.7-18.43,8.61-6.31,14.41-6.31c5.33,0,9.94,2.22,13.83,6.65V1.12h12.62v65.83ZM127.35,42.07c0,5.09.7,8.77,2.11,11.05,2.04,3.29,4.88,4.94,8.53,4.94,2.9,0,5.37-1.23,7.41-3.7s3.05-6.16,3.05-11.07c0-5.48-.99-9.42-2.96-11.83s-4.51-3.61-7.59-3.61-5.5,1.19-7.52,3.57-3.03,5.93-3.03,10.66Z"/>
      <path class="cls-1" d="M201.08,51.77l12.57,2.11c-1.62,4.61-4.17,8.12-7.66,10.53s-7.85,3.61-13.09,3.61c-8.29,0-14.43-2.71-18.41-8.13-3.14-4.34-4.71-9.82-4.71-16.43,0-7.9,2.07-14.09,6.2-18.57s9.35-6.71,15.67-6.71c7.09,0,12.69,2.34,16.79,7.03s6.06,11.86,5.88,21.53h-31.61c.09,3.74,1.11,6.65,3.05,8.73s4.37,3.12,7.27,3.12c1.98,0,3.64-.54,4.98-1.62s2.36-2.81,3.05-5.21ZM201.8,39.02c-.09-3.65-1.03-6.43-2.83-8.33s-3.98-2.85-6.56-2.85c-2.75,0-5.03,1-6.83,3.01s-2.68,4.73-2.65,8.17h18.86Z"/>
      <path class="cls-1" d="M267.98,66.95h-12.62v-24.34c0-5.15-.27-8.48-.81-9.99s-1.41-2.69-2.63-3.52-2.67-1.26-4.38-1.26c-2.19,0-4.15.6-5.88,1.8s-2.93,2.78-3.57,4.76-.97,5.63-.97,10.96v21.6h-12.62V19.26h11.72v7c4.16-5.39,9.4-8.08,15.72-8.08,2.78,0,5.33.5,7.63,1.5s4.05,2.28,5.23,3.84,2.01,3.32,2.47,5.3.7,4.8.7,8.49v29.64Z"/>
      <path class="cls-1" d="M337.05,42.75v-11.09h28.65v26.22c-2.78,2.69-6.82,5.07-12.1,7.12s-10.63,3.08-16.05,3.08c-6.89,0-12.89-1.44-18.01-4.33-5.12-2.89-8.97-7.02-11.54-12.39-2.57-5.37-3.86-11.22-3.86-17.53,0-6.86,1.44-12.95,4.31-18.28s7.08-9.41,12.62-12.26c4.22-2.19,9.47-3.28,15.76-3.28,8.17,0,14.56,1.71,19.15,5.14,4.6,3.43,7.55,8.16,8.87,14.21l-13.2,2.47c-.93-3.23-2.67-5.79-5.23-7.66s-5.76-2.81-9.59-2.81c-5.81,0-10.43,1.84-13.85,5.52s-5.14,9.15-5.14,16.39c0,7.81,1.74,13.67,5.21,17.58s8.02,5.86,13.65,5.86c2.78,0,5.58-.55,8.37-1.64s5.2-2.42,7.21-3.97v-8.35h-15.22Z"/>
      <path class="cls-1" d="M389.94,66.95h-12.62V19.26h11.72v6.78c2.01-3.2,3.81-5.31,5.41-6.33s3.42-1.53,5.46-1.53c2.87,0,5.64.79,8.31,2.38l-3.91,11c-2.13-1.38-4.1-2.07-5.93-2.07s-3.26.49-4.49,1.46-2.19,2.73-2.9,5.28-1.06,7.87-1.06,15.99v14.73Z"/>
      <path class="cls-1" d="M413.65,12.8V1.12h12.62v11.67h-12.62ZM413.65,66.95V19.26h12.62v47.69h-12.62Z"/>
      <path class="cls-1" d="M433.68,19.26h7v-3.59c0-4.01.43-7,1.28-8.98s2.42-3.58,4.71-4.83,5.19-1.86,8.69-1.86,7.11.54,10.55,1.62l-1.71,8.8c-2.01-.48-3.94-.72-5.79-.72s-3.14.43-3.93,1.28-1.19,2.49-1.19,4.92v3.37h9.43v9.92h-9.43v37.76h-12.62V29.19h-7v-9.92Z"/>
      <path class="cls-1" d="M464.3,19.26h7v-3.59c0-4.01.43-7,1.28-8.98s2.42-3.58,4.71-4.83,5.19-1.86,8.69-1.86,7.11.54,10.55,1.62l-1.71,8.8c-2.01-.48-3.94-.72-5.79-.72s-3.14.43-3.93,1.28-1.19,2.49-1.19,4.92v3.37h9.43v9.92h-9.43v37.76h-12.62V29.19h-7v-9.92Z"/>
      <path class="cls-1" d="M500.45,12.8V1.12h12.62v11.67h-12.62ZM500.45,66.95V19.26h12.62v47.69h-12.62Z"/>
      <path class="cls-1" d="M547.87,19.26v10.06h-8.62v19.22c0,3.89.08,6.16.25,6.8s.54,1.17,1.12,1.59,1.29.63,2.13.63c1.17,0,2.86-.4,5.07-1.21l1.08,9.79c-2.93,1.26-6.26,1.89-9.97,1.89-2.28,0-4.33-.38-6.15-1.15s-3.17-1.75-4.02-2.96-1.44-2.85-1.77-4.92c-.27-1.47-.4-4.43-.4-8.89v-20.79h-5.79v-10.06h5.79v-9.47l12.66-7.36v16.84h8.62Z"/>
      <path class="cls-1" d="M569.2,1.12v24.2c4.07-4.76,8.94-7.14,14.59-7.14,2.9,0,5.52.54,7.86,1.62s4.09,2.45,5.28,4.13,1.99,3.53,2.42,5.57.65,5.19.65,9.47v27.97h-12.62v-25.19c0-5-.24-8.17-.72-9.52s-1.32-2.42-2.54-3.21-2.73-1.19-4.56-1.19c-2.1,0-3.97.51-5.61,1.53s-2.85,2.55-3.61,4.6-1.15,5.08-1.15,9.09v23.89h-12.62V1.12h12.62Z"/>
    </g>
  </g>
</svg>